<?xml version="1.0" encoding="UTF-8"?>
<svg id="Layer_2" data-name="Layer 2" xmlns="http://www.w3.org/2000/svg" xmlns:xlink="http://www.w3.org/1999/xlink" viewBox="0 0 171.94 187.96">
  <defs>
    <style>
      .cls-1 {
        fill: none;
      }

      .cls-2 {
        fill: url(#linear-gradient);
      }

      .cls-3 {
        clip-path: url(#clippath);
      }

      .cls-4 {
        fill: #00adee;
      }

      .cls-5 {
        clip-path: url(#clippath-1);
      }
    </style>
    <clipPath id="clippath">
      <rect class="cls-1" x=".39" width="171.54" height="187.7"/>
    </clipPath>
    <clipPath id="clippath-1">
      <path class="cls-1" d="M349.42-4h0V-120.59H213.72c-8.13,0-15.28,5.49-17.39,13.34l-10.76,40.17h0l-10.73,40.03-9.93,9.93V-8.89H7.42s0-8.23,0-8.23L-2.52-27.05-24-107.25c-2.11-7.85-9.26-13.34-17.39-13.34h-119.94l.29,.19h-.29v-.19s0-49.19,0-49.19h-.01c-.12-22.26-8.56-43.43-23.8-59.67l-2.67-2.84h-136.04l-2.67,2.84c-15.24,16.24-23.68,37.41-23.8,59.67h-.01v49.38s0,113.6,0,113.6l-54,14.47V138.84l58.5,58.5v138.02h46.48s50.27-50.27,50.27-50.27v-3.73h9.77s54,54,54,54h19.48v-91.61s6.63,37.61,6.63,37.61H-80.09S-3.83,203.33-3.83,203.33v132.03H42.64s50.27-50.27,50.27-50.27v-3.73h9.77s54,54,54,54h19.48v-91.61s6.63,37.61,6.63,37.61h76.8s89.82-89.82,89.82-89.82h0V-4Z"/>
    </clipPath>
    <linearGradient id="linear-gradient" x1="0" y1="94.11" x2="171" y2="94.11" gradientUnits="userSpaceOnUse">
      <stop offset="0" stop-color="#ff7bac"/>
      <stop offset="0" stop-color="#ff7bac" stop-opacity=".76"/>
      <stop offset="0" stop-color="#ff7bac" stop-opacity=".36"/>
      <stop offset="0" stop-color="#ff7bac" stop-opacity=".1"/>
      <stop offset="0" stop-color="#ff7bac" stop-opacity="0"/>
    </linearGradient>
  </defs>
  <g id="Layer_1-2" data-name="Layer 1">
    <path class="cls-4" d="M65.62,68.75c-.06,0-.12-.01-.18-.04-.76-.35-1.28-.55-1.63-.69-.76-.3-1.11-.43-.91-1.26,.07-.28,.19-.75,.18-1.6,0-.17,.09-.32,.25-.39,.06-.03,.12-.04,.19-.04,.1,0,.2,.03,.28,.1,.27,.22,.48,.39,.65,.53,.79,.63,.84,.7,1.21,1.76,.09,.27,.21,.61,.38,1.06,.06,.16,.02,.35-.11,.47-.08,.08-.19,.12-.29,.12Z"/>
    <path class="cls-4" d="M65.62,68.32c-.93-2.49-.4-1.74-2.11-3.17,.03,2.95-1.34,1.57,2.11,3.17Z"/>
    <path class="cls-4" d="M144,152.48c-.47,0-.63-.4-.9-1.05-.09-.22-.2-.48-.34-.8-.07-.16-.04-.34,.07-.47,.08-.09,.2-.14,.32-.14,.05,0,.09,0,.14,.02l2.11,.7c.15,.05,.26,.18,.29,.34,.03,.16-.04,.32-.16,.42-.22,.17-.4,.31-.55,.43-.44,.35-.68,.55-.98,.55h0Z"/>
    <path class="cls-4" d="M145.27,151.16c-.7-.23-1.41-.47-2.11-.7,.91,2.03,.47,1.96,2.11,.7Z"/>
    <path class="cls-4" d="M149.49,157.22c-.09,0-.18-.03-.26-.08-.19-.14-.34-.24-.46-.32-.26-.17-.45-.3-.47-.57-.02-.26,.15-.42,.3-.55,.12-.11,.31-.28,.54-.58,.08-.11,.21-.17,.34-.17,.05,0,.09,0,.14,.02,.17,.06,.29,.22,.29,.41v1.41c0,.16-.09,.31-.24,.39-.06,.03-.13,.05-.19,.05Z"/>
    <path class="cls-4" d="M149.49,156.79v-1.41c-.86,1.11-1.13,.57,0,1.41Z"/>
    <path class="cls-4" d="M156.53,167.07c-.14,0-.27-.07-.35-.18-.08-.11-.1-.26-.05-.39,.12-.34,.19-.54,.23-.67,.09-.28,.11-.33,.3-.55,.05-.07,.13-.16,.25-.3,.08-.11,.21-.17,.34-.17,.05,0,.09,0,.14,.02,.17,.06,.29,.22,.29,.41v1.41c0,.24-.19,.43-.43,.43h-.7Z"/>
    <path class="cls-4" d="M157.23,166.64v-1.41c-.57,.72-.26,.17-.7,1.41h.7Z"/>
    <g class="cls-3">
      <g class="cls-5">
        <g>
          <g>
            <path class="cls-4" d="M14.34,71.15c-.32,0-.78-.07-1.18-.17-.46-.12-.94-.29-.94-.69,0-.29,.28-1.41,.37-1.75,.02-.08,.06-.14,.12-.19,.21-.17,.37-.21,.61-.26,.11-.03,.26-.06,.46-.12,.1-.03,.2-.04,.31-.04,.7,0,1.32,.6,1.39,.67,.03,.03,.05,.06,.07,.1,.09,.2,.39,.86,.39,1.23,0,.56-.82,1.15-1.45,1.21-.05,0-.1,0-.16,0Z"/>
            <path class="cls-4" d="M12.94,68.63c.22-.18,.31-.13,.94-.31s1.34,.54,1.34,.54c0,0,.36,.76,.36,1.08s-.63,.81-1.12,.85-1.88-.22-1.88-.49,.36-1.66,.36-1.66Z"/>
            <path class="cls-4" d="M32,28.29c-.21,0-.91-.01-1.23-.17-.49-.23-.67-1.19-.46-1.77,.1-.28,.91-1.67,1.5-1.67,.05,0,.14,.02,.19,.04,.25,.12,1.11,.83,1.37,1.04,.06,.05,.1,.12,.12,.19,.06,.26,.03,.41-.02,.64-.02,.11-.05,.25-.09,.45-.13,.8-1.14,1.18-1.25,1.22-.04,.01-.08,.02-.12,.02h0Z"/>
            <path class="cls-4" d="M33.13,26.04c.06,.27-.01,.33-.12,.94s-1.02,.94-1.02,.94c0,0-.81,0-1.08-.13s-.44-.88-.28-1.32,.97-1.54,1.2-1.43,1.29,.99,1.29,.99Z"/>
            <path class="cls-4" d="M88.77,152.74c-.1,0-.2-.04-.26-.12-.06-.06-.34-.42-.22-1.18,.08-.5-.07-.85-.07-.85-.06-.12-.04-.26,.04-.37,.28-.37,.69-.42,1.07-.42h.22c.06,0,1.5,.08,1.55,.84,0,.08,.01,.15,.02,.22,.04,.27,.07,.55-.13,.75,0,0,0,0,0,0,.01,0,0,.05-.02,.1-.09,.3-.24,.74-.65,.89-.39,.14-1.37,.15-1.56,.15Z"/>
            <path class="cls-4" d="M88.54,150.44c.19-.25,.48-.29,.98-.27s1.19,.21,1.21,.5,.1,.58,0,.69-.17,.77-.52,.9-1.44,.13-1.44,.13c0,0-.23-.25-.13-.88s-.1-1.06-.1-1.06Z"/>
            <g>
              <path class="cls-4" d="M59.4,10.37c-.29,0-.59-.09-.88-.27-.09-.05-.15-.14-.17-.24-.02-.1,0-.2,.07-.28,.54-.7,.89-.97,1.26-.97,.23,0,.39,.11,.5,.19,.1,.06,.14,.09,.19,.09,.06,0,.16-.04,.27-.1,.06-.03,.12-.05,.18-.05,.12,0,.23,.06,.3,.16,.11,.16,.07,.37-.08,.49-.03,.03-.07,.08-.13,.13-.27,.3-.78,.86-1.51,.86Z"/>
              <path class="cls-4" d="M58.71,9.79c1.14,.7,1.86-.51,2.11-.7-1.07,.63-.76-1.06-2.11,.7Z"/>
              <path class="cls-4" d="M5.23,12.26s-.09,0-.14-.03c-.13-.06-.22-.19-.22-.33v-2.11c0-.2,.16-.36,.36-.36h2.11c.15,0,.28,.09,.33,.22,.06,.13,.02,.29-.08,.39l-2.11,2.11c-.07,.07-.16,.11-.25,.11Z"/>
              <path class="cls-4" d="M5.23,11.9l2.11-2.11h-2.11v2.11Z"/>
              <path class="cls-4" d="M29.86,12.97c-.12,0-.23-.06-.29-.15-.07-.1-.08-.22-.04-.33,.12-.34,.19-.55,.23-.68,.09-.28,.11-.32,.28-.53,.06-.07,.13-.16,.25-.3,.07-.09,.17-.14,.28-.14,.04,0,.08,0,.12,.02,.15,.05,.24,.19,.24,.34v1.41c0,.2-.16,.36-.36,.36h-.7Z"/>
              <path class="cls-4" d="M30.56,11.2c-.57,.72-.26,.17-.7,1.41h.7v-1.41Z"/>
              <path class="cls-4" d="M126.97,178.35c-.07,0-.14-.02-.21-.06-.1-.07-.16-.18-.16-.3v-.7c0-.2,.16-.36,.36-.36h1.41c.15,0,.29,.1,.34,.24,.05,.14,0,.31-.12,.4l-.27,.22c-.23,.19-.27,.21-.54,.29-.13,.04-.33,.11-.7,.24-.04,.02-.08,.02-.13,.02Z"/>
              <path class="cls-4" d="M126.97,177.28v.7c1.21-.45,.69-.14,1.41-.7h-1.41Z"/>
              <path class="cls-4" d="M20.01,34.78c-.07,0-.14-.02-.21-.06-.1-.07-.16-.18-.16-.3v-.58l-.14-.18c-.19-.23-.21-.27-.3-.54-.04-.13-.11-.33-.24-.69-.04-.12-.02-.25,.05-.35,.07-.09,.17-.14,.28-.14,.01,0,.03,0,.04,0,1.43,.18,1.73,.29,2.46,.56l.43,.16c.11,.04,.19,.13,.23,.24,.03,.11,0,.23-.07,.32-.15,.18-.26,.32-.35,.43-.43,.54-.49,.58-1.21,.83-.18,.06-.41,.14-.7,.25-.04,.02-.08,.02-.13,.02Z"/>
              <path class="cls-4" d="M22.12,33.02c-1.07-.39-1.18-.5-2.81-.7,.45,1.21,.14,.69,.7,1.41v.7c1.66-.62,1.16-.27,2.11-1.41Z"/>
              <path class="cls-4" d="M30.56,56.6c-.12,0-.23-.06-.29-.15s-.08-.22-.04-.33c.12-.34,.19-.54,.23-.68,.09-.28,.11-.32,.28-.53,.05-.07,.13-.16,.25-.3,.07-.09,.17-.14,.28-.14,.04,0,.08,0,.12,.02,.14,.05,.24,.19,.24,.34v1.41c0,.2-.16,.36-.36,.36h-.7Z"/>
              <path class="cls-4" d="M31.26,56.24v-1.41c-.57,.72-.26,.17-.7,1.41h.7Z"/>
              <path class="cls-4" d="M156.53,91.79c-.12,0-.23-.06-.29-.15s-.08-.22-.04-.33c.12-.34,.19-.54,.23-.67,.09-.28,.11-.32,.28-.53,.06-.07,.13-.16,.25-.3,.07-.09,.17-.14,.28-.14,.04,0,.08,0,.12,.02,.15,.05,.24,.19,.24,.34v1.41c0,.2-.16,.36-.36,.36h-.7Z"/>
              <path class="cls-4" d="M157.23,90.02c-.57,.72-.26,.17-.7,1.41h.7v-1.41Z"/>
              <path class="cls-4" d="M145.27,81.23c-.08,0-.16-.03-.23-.08-.08-.07-.13-.17-.13-.28v-1.41c0-.12,.06-.22,.15-.29,.06-.04,.14-.07,.21-.07,.04,0,.08,0,.11,.02l2.11,.7c.13,.04,.22,.16,.24,.29s-.04,.27-.15,.35c-.66,.46-.76,.49-1.59,.64l-.66,.12s-.05,0-.07,0Z"/>
              <path class="cls-4" d="M145.27,79.46v1.41c1.45-.28,1.36-.17,2.11-.7-.7-.23-1.41-.47-2.11-.7Z"/>
              <path class="cls-4" d="M137.71,27.25c-.42,0-.58-.38-.83-1.01-.09-.22-.2-.48-.34-.8-.06-.13-.03-.28,.06-.39,.07-.08,.17-.12,.27-.12,.04,0,.08,0,.11,.02l2.11,.7c.13,.04,.22,.15,.24,.28,.02,.13-.03,.26-.14,.35-.22,.17-.4,.31-.55,.43-.44,.35-.66,.53-.94,.53h0Z"/>
              <path class="cls-4" d="M138.97,26c-.7-.23-1.41-.47-2.11-.7,.91,2.03,.47,1.96,2.11,.7Z"/>
              <path class="cls-4" d="M77.71,117.12c-.12,0-.23-.06-.29-.15s-.08-.22-.04-.33c.12-.34,.19-.54,.23-.67,.09-.29,.11-.32,.29-.53,.05-.07,.13-.16,.25-.3,.07-.09,.17-.14,.28-.14,.04,0,.08,0,.12,.02,.14,.05,.24,.19,.24,.34v1.41c0,.2-.16,.36-.36,.36h-.7Z"/>
              <path class="cls-4" d="M78.42,116.76v-1.41c-.57,.72-.26,.17-.7,1.41h.7Z"/>
              <path class="cls-4" d="M165.68,189.6c-.12,0-.23-.06-.29-.15s-.08-.22-.04-.33c.12-.34,.19-.55,.23-.68,.09-.28,.11-.32,.28-.53,.05-.07,.13-.16,.25-.3,.07-.09,.17-.14,.28-.14,.04,0,.08,0,.12,.02,.15,.05,.24,.19,.24,.34v1.41c0,.2-.16,.36-.36,.36h-.7Z"/>
              <path class="cls-4" d="M166.38,187.84c-.57,.72-.26,.17-.7,1.41h.7v-1.41Z"/>
              <path class="cls-4" d="M164.16,41.78c-.29,0-.56-.17-1.02-.44l-.46-.27c-.08-.05-.15-.13-.17-.23s0-.2,.04-.28c.46-.72,.76-1.08,1.14-1.08,.2,0,.34,.1,.46,.18,.11,.08,.19,.13,.34,.13,.1,0,.22-.03,.36-.08,.04-.02,.08-.02,.12-.02,.09,0,.19,.04,.26,.11,.1,.1,.13,.25,.08,.38-.43,1.13-.61,1.6-1.15,1.6h0Z"/>
              <path class="cls-4" d="M164.97,40.05c-1.37,.5-.92-1.18-2.11,.7,1.51,.87,1.43,1.11,2.11-.7Z"/>
              <path class="cls-4" d="M155.83,36.89c-.12,0-.23-.06-.29-.15-.07-.1-.08-.22-.04-.33,.12-.34,.19-.55,.23-.68,.09-.28,.11-.32,.28-.53,.06-.07,.13-.16,.25-.3,.07-.09,.17-.14,.28-.14,.04,0,.08,0,.12,.02,.14,.05,.24,.19,.24,.34v1.41c0,.2-.16,.36-.36,.36h-.7Z"/>
              <path class="cls-4" d="M156.53,35.13c-.57,.72-.26,.17-.7,1.41h.7v-1.41Z"/>
              <path class="cls-4" d="M164.97,58.01c-.08,0-.16-.03-.22-.07-.09-.07-.14-.17-.14-.29v-1.41c0-.2,.16-.36,.36-.36h2.11c.13,0,.25,.07,.31,.18s.06,.25,0,.36c-.27,.48-.38,.74-.44,.9-.13,.32-.24,.43-.61,.45-.18,0-.52,.02-1.28,.23-.03,0-.06,.01-.09,.01Z"/>
              <path class="cls-4" d="M167.08,56.24h-2.11v1.41c2.26-.61,1.09,.38,2.11-1.41Z"/>
              <path class="cls-4" d="M140.34,46.75c-.07,0-.14-.02-.21-.06-.1-.07-.16-.18-.16-.3v-.7c0-.2,.16-.36,.36-.36h1.41c.15,0,.29,.1,.34,.24,.05,.15,0,.31-.12,.4l-.27,.22c-.23,.19-.27,.21-.54,.3-.13,.04-.33,.11-.7,.24-.04,.02-.08,.02-.13,.02Z"/>
              <path class="cls-4" d="M140.34,46.39c1.21-.45,.69-.14,1.41-.7h-1.41v.7Z"/>
              <path class="cls-4" d="M56.04,44.46c-.12,0-.23-.06-.29-.15s-.08-.22-.04-.33c.12-.34,.19-.55,.23-.68,.09-.28,.11-.32,.28-.53,.06-.07,.13-.16,.25-.3,.07-.09,.17-.14,.28-.14,.04,0,.08,0,.12,.02,.15,.05,.24,.19,.24,.34v1.41c0,.2-.16,.36-.36,.36h-.7Z"/>
              <path class="cls-4" d="M56.74,44.1v-1.41c-.57,.72-.26,.17-.7,1.41h.7Z"/>
              <path class="cls-4" d="M169.9,2.41c-.08,0-.15-.02-.21-.07-.19-.14-.34-.24-.46-.32-.25-.17-.42-.28-.44-.52-.02-.23,.13-.36,.28-.49,.12-.11,.31-.28,.55-.59,.07-.09,.18-.14,.29-.14,.04,0,.08,0,.12,.02,.15,.05,.24,.19,.24,.34v1.41c0,.14-.08,.26-.2,.32-.05,.03-.11,.04-.16,.04Z"/>
              <path class="cls-4" d="M169.9,.64c-.86,1.11-1.13,.57,0,1.41V.64Z"/>
              <path class="cls-4" d="M165.68,7.34s-.09,0-.14-.03c-.13-.06-.22-.19-.22-.33v-1.41c0-.2,.16-.36,.36-.36h1.41c.15,0,.28,.09,.33,.22s.02,.29-.08,.39l-1.41,1.41c-.07,.07-.16,.1-.25,.1Z"/>
              <path class="cls-4" d="M165.68,5.57v1.41l1.41-1.41h-1.41Z"/>
              <path class="cls-4" d="M90.38,7.34c-.08,0-.16-.03-.22-.07-.09-.07-.14-.17-.14-.29v-1.41c0-.2,.16-.36,.36-.36h2.11c.13,0,.25,.07,.31,.18,.06,.11,.06,.25,0,.36-.27,.47-.38,.74-.44,.9-.13,.32-.24,.43-.61,.45-.18,0-.52,.02-1.28,.23-.03,0-.06,.01-.09,.01Z"/>
              <path class="cls-4" d="M92.49,5.57h-2.11v1.41c2.26-.61,1.09,.38,2.11-1.41Z"/>
              <path class="cls-4" d="M109.38,23.52s-.09,0-.14-.03c-.13-.06-.22-.19-.22-.33v-1.41c0-.2,.16-.36,.36-.36h1.41c.15,0,.28,.09,.33,.22s.02,.29-.08,.39l-1.41,1.41c-.07,.07-.16,.1-.25,.1Z"/>
              <path class="cls-4" d="M109.38,21.76v1.41l1.41-1.41h-1.41Z"/>
              <path class="cls-4" d="M77.71,14.38c-.12,0-.23-.06-.29-.15-.07-.1-.08-.22-.04-.33,.12-.34,.19-.55,.23-.68,.09-.28,.11-.32,.28-.53,.06-.07,.13-.16,.25-.3,.07-.09,.17-.14,.28-.14,.04,0,.08,0,.12,.02,.14,.05,.24,.19,.24,.34v1.41c0,.2-.16,.36-.36,.36h-.7Z"/>
              <path class="cls-4" d="M78.42,12.61c-.57,.72-.26,.17-.7,1.41h.7v-1.41Z"/>
              <path class="cls-4" d="M-.4,10.15s-.08,0-.12-.02c-.34-.12-.54-.19-.67-.23-.29-.09-.32-.11-.53-.28-.07-.06-.16-.13-.3-.25-.03-.02-.05-.05-.07-.08-.46-.66-.49-.76-.64-1.59l-.12-.66c-.02-.1,0-.2,.06-.28,.06-.08,.14-.13,.24-.15,.46-.07,.74-.14,.95-.18,.23-.05,.4-.09,.6-.09,.3,0,.65,.09,1.41,.28,.18,.04,.29,.21,.27,.39-.18,1.43-.29,1.73-.56,2.46l-.16,.43c-.05,.15-.19,.24-.34,.24Z"/>
              <path class="cls-4" d="M-2.51,6.98c.28,1.45,.17,1.36,.7,2.11,.72,.57,.17,.26,1.41,.7C-.02,8.72,.09,8.62,.3,6.98c-1.73-.44-1.12-.26-2.81,0Z"/>
              <path class="cls-4" d="M76.3,132.13c-.2,0-.36-.16-.36-.36v-1.41c0-.2,.16-.36,.36-.36h1.41c.2,0,.36,.16,.36,.36,0,.48-.48,1.77-1.06,1.77h-.7Z"/>
              <path class="cls-4" d="M77.01,131.77c.23,0,.7-.94,.7-1.41h-1.41v1.41h.7Z"/>
              <path class="cls-4" d="M168.87,120.2c-.42,0-.74-.33-.84-.87-.11-.6,.06-1.36,.61-1.57l.58-.09s.53-.07,.54-.07c.11,0,.21,.05,.28,.13,.08,.09,.1,.22,.07,.34-.12,.36-.19,.57-.24,.7q-.06,.17-.05,.32c0,.09,0,.22,.01,.41,0,.1-.04,.19-.1,.26-.29,.29-.57,.44-.85,.44h0Z"/>
              <path class="cls-4" d="M169.46,119.51c0-.92-.1-.3,.3-1.55-.33,.04-.66,.09-.99,.13-.75,.29-.48,2.59,.69,1.42Z"/>
              <path class="cls-4" d="M47.08,116.42c-.14,0-.26-.08-.32-.2-.06-.12-.04-.27,.04-.38l.37-.47c.07-.09,.17-.14,.28-.14,.04,0,.08,0,.12,.02,.14,.05,.24,.19,.24,.34v.47c0,.2-.16,.36-.36,.36h-.37Z"/>
              <path class="cls-4" d="M47.45,115.59l-.37,.47h.37c0-.47,0,0,0-.47Z"/>
              <path class="cls-4" d="M21.41,148.07c-.59,0-.92-.67-1.03-.89-.25-.52-.16-.86-.04-1.06,.2-.33,.63-.5,1.21-.5s1.19,.18,1.49,.43c.09,.07,.13,.18,.13,.3s-.07,.22-.16,.28c-.09,.06-.25,.28-.37,.46-.33,.46-.7,.99-1.23,.99h0Z"/>
              <path class="cls-4" d="M20.71,147.02c.87,1.75,1.58-.36,2.11-.7-.55-.46-2.78-.65-2.11,.7Z"/>
              <path class="cls-4" d="M43,77.78c-.3,0-.41-.23-.62-.63l-.17-.33c-.06-.11-.05-.25,0-.35,.07-.11,.18-.17,.31-.17h1.41c.16,0,.3,.1,.34,.25,.05,.15-.01,.32-.14,.4-.34,.23-.53,.43-.66,.56-.14,.14-.27,.28-.48,.28h0Z"/>
              <path class="cls-4" d="M43.93,76.65h-1.41c.66,1.25,.24,.79,1.41,0Z"/>
              <path class="cls-4" d="M153.48,83.41c-.3,0-.41-.22-.62-.63l-.17-.33c-.06-.11-.05-.25,0-.35,.07-.11,.18-.17,.31-.17h1.41c.16,0,.3,.1,.34,.26,.05,.15-.01,.32-.14,.4-.34,.23-.53,.43-.66,.56-.14,.14-.27,.28-.47,.28h0Z"/>
              <path class="cls-4" d="M154.42,82.28h-1.41c.66,1.25,.24,.78,1.41,0Z"/>
              <path class="cls-4" d="M86.15,73c-.29,0-.59-.09-.88-.27-.09-.05-.15-.14-.17-.24-.02-.1,0-.2,.07-.28,.54-.7,.89-.97,1.26-.97,.23,0,.39,.11,.5,.19,.1,.06,.14,.09,.19,.09,.06,0,.16-.04,.27-.1,.06-.03,.12-.05,.18-.05,.12,0,.23,.06,.3,.16,.11,.16,.07,.37-.08,.49-.03,.03-.07,.08-.13,.13-.27,.3-.78,.86-1.51,.86Z"/>
              <path class="cls-4" d="M85.45,72.42c1.14,.71,1.86-.51,2.11-.7-1.07,.63-.76-1.06-2.11,.7Z"/>
              <path class="cls-4" d="M162.86,107.27c-.07,0-.14-.02-.21-.06-.1-.07-.16-.18-.16-.3v-.7c0-.2,.16-.36,.36-.36h1.41c.15,0,.29,.1,.34,.24,.05,.14,0,.31-.12,.4l-.27,.22c-.23,.19-.27,.21-.53,.29-.13,.04-.33,.11-.7,.24-.04,.02-.08,.02-.13,.02Z"/>
              <path class="cls-4" d="M162.86,106.2v.7c1.21-.45,.69-.14,1.41-.7h-1.41Z"/>
              <path class="cls-4" d="M155.7,137.51c-.24,0-.5-.09-.78-.29-.14-.1-.2-.28-.13-.44,.16-.37,.74-1.57,1.4-1.57,.39,0,.63,.33,.69,.98,0,.1-.02,.2-.09,.27-.02,.02-.05,.11-.08,.17-.14,.31-.4,.88-1.02,.88h0Z"/>
              <path class="cls-4" d="M156.53,136.22c-.16-1.49-1.06-.08-1.41,.7,1.04,.7,1.2-.46,1.41-.7Z"/>
              <path class="cls-4" d="M26.29,110.69c-.08,0-.16-.03-.23-.08-.08-.07-.13-.17-.13-.28v-.7c0-.2,.16-.36,.36-.36h2.11c.16,0,.3,.1,.34,.25,.05,.15,0,.31-.14,.4-.66,.46-.76,.49-1.59,.64l-.66,.12s-.05,0-.07,0Z"/>
              <path class="cls-4" d="M26.29,109.62v.7c1.45-.28,1.36-.17,2.11-.7h-2.11Z"/>
              <path class="cls-4" d="M9.45,100.93c-.12,0-.23-.06-.29-.15-.07-.1-.08-.22-.04-.33,.12-.34,.19-.54,.23-.67,.09-.28,.11-.32,.28-.53,.06-.07,.13-.16,.25-.3,.07-.09,.17-.14,.28-.14,.04,0,.08,0,.12,.02,.15,.05,.24,.19,.24,.34v1.41c0,.2-.16,.36-.36,.36h-.7Z"/>
              <path class="cls-4" d="M10.15,99.17c-.57,.72-.26,.17-.7,1.41h.7v-1.41Z"/>
              <path class="cls-4" d="M52.6,148.85s-.08,0-.12-.02c-.34-.12-.54-.19-.66-.23-.28-.09-.32-.11-.52-.29-.05-.04-.11-.09-.2-.17h-.56c-.2,0-.36-.16-.36-.36v-1.41c0-.19,.15-.35,.34-.36,.34-.02,.6-.04,.79-.06,.07,0,.13-.01,.19-.01,.53,0,1.04,.26,1.36,.7,.32,.44,.41,1,.24,1.52l-.14,.44c-.03,.09-.1,.17-.18,.21-.05,.02-.1,.04-.16,.04Z"/>
              <path class="cls-4" d="M51.34,146.31c-.2,.02-.47,.05-.81,.06v1.41h.69c.71,.57,.17,.26,1.38,.7,.05-.15,.1-.29,.14-.44,.3-.92-.44-1.84-1.4-1.74Z"/>
              <path class="cls-4" d="M24.93,163.57c-.07,0-.14-.02-.21-.06-.1-.07-.16-.18-.16-.3v-.7c0-.2,.16-.36,.36-.36h1.41c.15,0,.29,.1,.34,.24,.05,.15,0,.31-.12,.4l-.27,.22c-.23,.19-.27,.21-.54,.29-.13,.04-.33,.11-.7,.24-.04,.02-.08,.02-.13,.02Z"/>
              <path class="cls-4" d="M24.93,162.5v.7c1.21-.45,.69-.14,1.41-.7h-1.41Z"/>
              <path class="cls-4" d="M50.97,186.09c-.09,0-.19-.04-.25-.11l-1.41-1.41c-.1-.1-.13-.26-.08-.39s.19-.22,.33-.22h1.41c.2,0,.36,.16,.36,.36v1.41c0,.15-.09,.28-.22,.33-.04,.02-.09,.03-.14,.03Z"/>
              <path class="cls-4" d="M50.97,185.73v-1.41h-1.41l1.41,1.41Z"/>
              <path class="cls-4" d="M171.15,11.42c-.2,0-.36-.16-.36-.36v-3.17c0-.16,.1-.3,.25-.34,.04-.01,.07-.02,.11-.02,.12,0,.23,.06,.29,.15,.67,.96,.71,1.1,.93,2.32,.05,.27,.11,.59,.18,.99,.02,.11,0,.21-.08,.3s-.17,.13-.28,.13h-1.06Z"/>
              <path class="cls-4" d="M171.15,11.06h1.06c-.42-2.17-.26-2.03-1.06-3.17v3.17Z"/>
              <path class="cls-4" d="M12.85,88.47c-.2,0-.36-.16-.36-.36v-2.11c0-.15,.1-.29,.24-.34,.04-.01,.08-.02,.12-.02,.11,0,.21,.05,.28,.14,.15,.19,.25,.32,.33,.41,.27,.32,.29,.37,.41,.74,.06,.19,.16,.5,.37,1.05,.04,.11,.03,.23-.04,.33s-.18,.16-.3,.16h-1.06Z"/>
              <path class="cls-4" d="M12.85,86v2.11h1.06c-.68-1.82-.21-1.03-1.06-2.11Z"/>
              <path class="cls-4" d="M12.85,150.74c-.11,0-.21-.05-.28-.14-.15-.19-.25-.32-.33-.41-.27-.33-.29-.37-.41-.74-.06-.19-.16-.5-.37-1.05-.04-.11-.03-.23,.04-.33s.18-.16,.3-.16h2.11c.15,0,.28,.09,.33,.22s.02,.29-.08,.39l-.95,.95v.91c0,.15-.1,.29-.24,.34-.04,.01-.08,.02-.12,.02Z"/>
              <path class="cls-4" d="M11.79,148.26c.68,1.82,.21,1.03,1.06,2.11v-1.06c.35-.35,.7-.7,1.06-1.06h-2.11Z"/>
              <path class="cls-4" d="M125.77,124.35c-.2,0-.36-.16-.36-.36v-2.11c0-.15,.1-.29,.24-.34,.04-.01,.08-.02,.12-.02,.11,0,.21,.05,.28,.14,.15,.19,.25,.32,.33,.41,.27,.32,.29,.37,.41,.74,.06,.19,.16,.5,.37,1.05,.04,.11,.03,.23-.04,.33s-.18,.16-.3,.16h-1.06Z"/>
              <path class="cls-4" d="M125.77,121.88v2.11h1.06c-.68-1.82-.21-1.03-1.06-2.11Z"/>
              <path class="cls-4" d="M105.22,140.44c-.08,0-.17-.03-.23-.08-.08-.07-.13-.17-.13-.28,0-.29-.02-.34-.04-.4-.05-.13-.09-.27-.09-.66,0-.2,.16-.36,.36-.36h1.32c.14,0,.31,.1,.37,.23,.12,.27-.06,.48-.37,.84-.05,.06-.13,.15-.19,.22,0,.18-.12,.33-.29,.37l-.64,.12s-.04,0-.07,0Z"/>
              <path class="cls-4" d="M105.22,140.08l.64-.12c-.26,0,.81-.94,.55-.94h-1.32c0,.7,.13,.35,.13,1.06Z"/>
              <path class="cls-4" d="M128.15,66.31s-.08,0-.12-.02c-.52-.19-.82-.28-1.02-.35-.4-.13-.44-.15-.73-.39-.1-.08-.24-.2-.46-.37-.12-.09-.17-.26-.12-.4,.05-.14,.19-.24,.34-.24h2.11c.2,0,.36,.16,.36,.36v1.06c0,.12-.06,.23-.15,.29-.06,.04-.13,.07-.21,.07Z"/>
              <path class="cls-4" d="M128.15,64.89h-2.11c1.09,.85,.26,.39,2.11,1.06v-1.06Z"/>
              <path class="cls-4" d="M99.39,48.36s-.08,0-.12-.02c-.52-.19-.82-.28-1.02-.34-.4-.13-.45-.15-.73-.39-.1-.08-.24-.2-.46-.37-.12-.09-.17-.26-.12-.4,.05-.15,.19-.24,.34-.24h2.11c.2,0,.36,.16,.36,.36v1.06c0,.12-.06,.23-.15,.29-.06,.04-.13,.07-.21,.07Z"/>
              <path class="cls-4" d="M99.39,46.95h-2.11c1.08,.85,.26,.39,2.11,1.06v-1.06Z"/>
              <path class="cls-4" d="M32.24,91.12s-.02-.08-.02-.12c-.02-.55-.04-.87-.05-1.08-.03-.42-.02-.47,.1-.82,.04-.12,.1-.3,.18-.57,.04-.15,.18-.25,.33-.26,.15,0,.29,.08,.35,.23l.77,1.96c.07,.19-.02,.39-.2,.47l-.98,.39c-.11,.04-.23,.03-.33-.03-.06-.04-.11-.1-.14-.17Z"/>
              <path class="cls-4" d="M32.58,90.99l.98-.39-.77-1.96c-.39,1.32-.27,.38-.21,2.35Z"/>
              <path class="cls-4" d="M43.45,188.73s-.08,0-.12-.02c-.52-.19-.82-.28-1.02-.35-.4-.13-.44-.15-.73-.39-.1-.08-.24-.2-.46-.37-.12-.09-.17-.26-.12-.4,.05-.14,.19-.24,.34-.24h2.11c.2,0,.36,.16,.36,.36v1.06c0,.12-.06,.23-.15,.29-.06,.04-.13,.07-.21,.07Z"/>
              <path class="cls-4" d="M43.45,188.37v-1.06h-2.11c1.08,.85,.26,.39,2.11,1.06Z"/>
              <path class="cls-4" d="M39.23,128.57c-.06,0-.13-.02-.19-.05-.11-.07-.17-.18-.17-.31v-2.11c0-.16,.1-.3,.26-.34,.03,0,.07-.02,.1-.02,.12,0,.23,.06,.3,.16,.35,.52,.66,.82,.86,1.02,.21,.21,.4,.39,.35,.65-.04,.29-.28,.41-.85,.7l-.5,.26c-.05,.03-.11,.04-.17,.04Z"/>
              <path class="cls-4" d="M39.23,126.1v2.11c1.87-.98,1.18-.36,0-2.11Z"/>
              <path class="cls-4" d="M78.84,177.79c-.45,0-1.07-.26-1.89-.79-.09-.06-.15-.15-.16-.26-.1-.8,.59-1.29,.93-1.52l.09-.06s.1-.06,.15-.06c.07-.01,.13-.02,.2-.02,.54,0,1.08,.38,1.38,.96,.24,.46,.26,.92,.06,1.26-.08,.26-.31,.5-.76,.5h0Z"/>
              <path class="cls-4" d="M79.26,177.14c.4-.57-.39-1.84-1.25-1.7-.28,.21-.95,.61-.87,1.25,1.63,1.06,2.06,.75,2.12,.45Z"/>
              <path class="cls-4" d="M84.61,.87s-.08,0-.12-.02c-.52-.19-.82-.28-1.02-.35-.4-.13-.44-.15-.73-.39-.1-.08-.24-.2-.46-.37-.12-.09-.17-.26-.12-.4,.05-.15,.19-.24,.34-.24h2.11c.2,0,.36,.16,.36,.36V.51c0,.12-.06,.23-.15,.29-.06,.04-.13,.07-.21,.07Z"/>
              <path class="cls-4" d="M84.61-.54h-2.11c1.09,.85,.26,.39,2.11,1.06V-.54Z"/>
            </g>
          </g>
          <path class="cls-4" d="M153.94,104.79c-.23,0-1.47-.1-1.91-.56-.16-.17-.19-.35-.18-.47,.02-.36-.16-.69-.16-.69-.09-.15-.05-.35,.09-.46,.32-.26,.8-.42,1.25-.42,.08,0,.16,0,.24,.02l.28,.03c1.14,.12,1.94,.25,1.94,.83,0,.5-.93,1.73-1.55,1.73Z"/>
          <path class="cls-4" d="M152.01,102.88c.3-.24,.8-.39,1.22-.33s1.91,.15,1.91,.51-.83,1.37-1.19,1.37-1.76-.18-1.73-.66-.21-.89-.21-.89Z"/>
          <path class="cls-4" d="M111.44,35.16c-.12,0-.23-.03-.35-.08-1.05-.52-1.48-1.39-1.15-2.34,.04-.13,.15-.22,.29-.24,0,0,.27-.04,.57-.04,.19,0,.35,.02,.49,.05,.31,.07,.9,.2,1.17,.63,.13,.21,.17,.46,.1,.72-.15,.63-.52,1.31-1.12,1.31Z"/>
          <path class="cls-4" d="M110.29,32.86s.55-.08,.93,0,1.15,.26,1,.91-.53,1.19-.95,.98-1.35-.8-.97-1.9Z"/>
        </g>
      </g>
    </g>
    <rect class="cls-2" y=".26" width="171" height="187.7"/>
  </g>
</svg>