<?xml version="1.0" encoding="UTF-8"?>
<svg id="Layer_2" data-name="Layer 2" xmlns="http://www.w3.org/2000/svg" xmlns:xlink="http://www.w3.org/1999/xlink" viewBox="0 0 168.75 188.35">
  <defs>
    <style>
      .cls-1, .cls-2 {
        fill: none;
      }

      .cls-3 {
        clip-path: url(#clippath);
      }

      .cls-4 {
        fill: #00adee;
      }

      .cls-5 {
        clip-path: url(#clippath-1);
      }

      .cls-2 {
        stroke: #fff;
        stroke-miterlimit: 10;
      }
    </style>
    <clipPath id="clippath">
      <rect class="cls-1" width="168.75" height="188.35"/>
    </clipPath>
    <clipPath id="clippath-1">
      <path class="cls-1" d="M177.75-3.47h0V-120.05H42.06c-8.13,0-15.28,5.49-17.39,13.34l-10.76,40.17h0L3.18-26.51-6.75-16.58V-8.35H-164.25s0-8.23,0-8.23l-9.93-9.93-21.49-80.2c-2.11-7.85-9.26-13.34-17.39-13.34h-119.94s.29,.19,.29,.19h-.29v-.19s0-49.19,0-49.19h-.01c-.12-22.26-8.56-43.43-23.8-59.67l-2.67-2.84h-136.04l-2.67,2.84c-15.24,16.24-23.68,37.41-23.8,59.67h-.01v49.38s0,113.6,0,113.6l-54,14.47V139.38s58.5,58.5,58.5,58.5v138.02h46.48s50.27-50.27,50.27-50.27v-3.73h9.77s54,54,54,54h19.48v-91.61s6.63,37.61,6.63,37.61h79.11s76.26-78.03,76.26-78.03v132.03h46.48s50.27-50.27,50.27-50.27v-3.73h9.77s54,54,54,54H4.5v-91.61s6.63,37.61,6.63,37.61H87.93s89.82-89.82,89.82-89.82h0V-3.47Z"/>
    </clipPath>
  </defs>
  <g id="Layer_1-2" data-name="Layer 1">
    <g class="cls-3">
      <rect class="cls-2" x="-173.32" y="-.81" width="173.34" height="192.89"/>
      <g class="cls-5">
        <g>
          <g>
            <path class="cls-4" d="M24.6,34.74c-.08,0-.16-.03-.22-.08-.09-.07-.14-.17-.14-.28v-1.06c0-.06,.01-.11,.04-.16l.53-1.06s.06-.09,.11-.13l.23-.18c.45-.34,.83-.64,1.27-.64,.2,0,.4,.06,.59,.19,.62,.41,.55,1.25,.52,1.66,0,.06,0,.11,0,.14,0,.16,0,.48-1.46,1.25l-1.38,.34s-.06,0-.08,0Z"/>
            <path class="cls-4" d="M25.13,32.26c.71-.53,1.15-.97,1.68-.62s.35,1.24,.35,1.5-1.27,.93-1.27,.93l-1.3,.31v-1.06l.53-1.06Z"/>
            <g>
              <rect class="cls-4" x="49.25" y=".12" width="2.13" height="2.13" rx=".36" ry=".36"/>
              <path class="cls-4" d="M49.61,1.88h1.41V.48h-1.41V1.88Z"/>
              <rect class="cls-4" x="166.07" y="119.05" width="2.13" height="2.13" rx=".36" ry=".36"/>
              <path class="cls-4" d="M166.43,120.81h1.41v-1.41h-1.41v1.41Z"/>
              <path class="cls-4" d="M142.63,113.12c-.09,0-.18-.03-.26-.08-.25-.08-.49-.36-.87-.81-.17-.2-.46-.54-.56-.6-.15,0-.25-.09-.3-.23-.05-.14,.04-.3,.16-.39,.17-.13,.29-.23,.37-.3,.3-.25,.34-.27,.69-.38,.18-.06,.46-.15,.95-.33,.04-.02,.08-.02,.13-.02,.07,0,.14,.02,.21,.06,.1,.07,.16,.18,.16,.3v1.92c0,.14-.08,.27-.21,.33-.02,.2-.09,.56-.45,.56h0Z"/>
              <path class="cls-4" d="M142.93,112.23v-1.91c-1.65,.62-.94,.19-1.91,.96,.32,0,1.2,1.42,1.52,1.42,.32,.32,.08-.78,.4-.47Z"/>
              <path class="cls-4" d="M127.02,35.32c-.12,0-.23-.06-.29-.15-.07-.1-.08-.22-.04-.33,.12-.34,.19-.55,.23-.68,.09-.28,.11-.32,.28-.53,.05-.07,.13-.16,.25-.3,.07-.09,.17-.14,.28-.14,.04,0,.08,0,.12,.02,.15,.05,.24,.19,.24,.34v1.41c0,.2-.16,.36-.36,.36h-.7Z"/>
              <path class="cls-4" d="M127.72,34.96v-1.41c-.57,.72-.26,.17-.7,1.41h.7Z"/>
              <path class="cls-4" d="M18.64,82.47c-.07,0-.14-.02-.21-.06-.1-.07-.16-.18-.16-.3v-.7c0-.2,.16-.36,.36-.36h1.41c.15,0,.29,.1,.34,.24,.05,.14,0,.31-.12,.4l-.27,.22c-.23,.19-.27,.21-.54,.29-.13,.04-.33,.11-.7,.24-.04,.02-.08,.02-.13,.02Z"/>
              <path class="cls-4" d="M18.64,81.4v.7c1.21-.45,.69-.14,1.41-.7h-1.41Z"/>
              <rect class="cls-4" x="125.95" y="182.38" width="2.13" height="2.13" rx=".36" ry=".36"/>
              <path class="cls-4" d="M126.31,184.15h1.41v-1.41h-1.41v1.41Z"/>
              <path class="cls-4" d="M25.94,34.35c-.59,0-.92-.67-1.03-.89-.25-.51-.16-.86-.04-1.06,.2-.33,.63-.5,1.21-.5s1.19,.18,1.49,.43c.09,.07,.13,.18,.13,.3,0,.11-.07,.22-.16,.28-.09,.06-.25,.28-.37,.46-.33,.46-.7,.99-1.23,.99h0Z"/>
              <path class="cls-4" d="M27.34,32.59c-.55-.46-2.78-.65-2.11,.7,.87,1.75,1.58-.36,2.11-.7Z"/>
              <path class="cls-4" d="M53.83,30.39c-.2,0-.36-.16-.36-.36v-1.41c0-.2,.16-.36,.36-.36h1.41c.2,0,.36,.16,.36,.36s-.16,.36-.36,.36h-1.05v1.05c0,.2-.16,.36-.36,.36Z"/>
              <path class="cls-4" d="M55.24,28.63h-1.41v1.41"/>
              <path class="cls-4" d="M10.2,45.87c-.12,0-.23-.06-.29-.15-.07-.1-.08-.22-.04-.33,.12-.34,.19-.55,.23-.68,.09-.28,.11-.32,.28-.53,.06-.07,.13-.16,.25-.3,.07-.09,.17-.14,.28-.14,.04,0,.08,0,.12,.02,.14,.05,.24,.19,.24,.34v1.41c0,.2-.16,.36-.36,.36h-.7Z"/>
              <path class="cls-4" d="M10.9,45.51v-1.41c-.57,.72-.26,.17-.7,1.41h.7Z"/>
              <path class="cls-4" d="M32.6,61.58c-.24,0-.5-.09-.78-.29-.14-.1-.2-.28-.13-.44,.16-.37,.74-1.57,1.4-1.57,.39,0,.63,.33,.69,.98,0,.1-.02,.2-.09,.27-.01,.02-.05,.11-.08,.17-.14,.31-.4,.88-1.02,.88h0Z"/>
              <path class="cls-4" d="M32.01,61c1.04,.7,1.2-.46,1.41-.7-.16-1.49-1.06-.08-1.41,.7Z"/>
              <path class="cls-4" d="M97.3,38.46c-.12,0-.23-.06-.29-.15-.07-.1-.08-.22-.04-.33,.12-.34,.19-.54,.23-.67,.09-.29,.11-.32,.28-.53,.06-.07,.13-.16,.25-.3,.07-.09,.17-.14,.28-.14,.04,0,.08,0,.12,.02,.15,.05,.24,.19,.24,.34v1.41c0,.2-.16,.36-.36,.36h-.7Z"/>
              <path class="cls-4" d="M98.01,36.69c-.57,.72-.26,.17-.7,1.41h.7v-1.41Z"/>
              <path class="cls-4" d="M159.39,3.65c-.12,0-.23-.06-.29-.15s-.08-.22-.04-.33c.12-.34,.19-.55,.23-.68,.09-.28,.11-.32,.28-.53,.05-.07,.13-.16,.25-.3,.07-.09,.17-.14,.28-.14,.04,0,.08,0,.12,.02,.15,.05,.24,.19,.24,.34v1.41c0,.2-.16,.36-.36,.36h-.7Z"/>
              <path class="cls-4" d="M160.09,1.88c-.57,.72-.26,.17-.7,1.41h.7V1.88Z"/>
              <path class="cls-4" d="M46.79,14.91c-.12,0-.23-.06-.29-.15s-.08-.22-.04-.33c.12-.34,.19-.55,.23-.68,.09-.28,.11-.32,.28-.53,.06-.07,.13-.16,.25-.3,.07-.09,.17-.14,.28-.14,.04,0,.08,0,.12,.02,.15,.05,.24,.19,.24,.34v1.41c0,.2-.16,.36-.36,.36h-.7Z"/>
              <path class="cls-4" d="M47.5,14.55v-1.41c-.57,.72-.26,.17-.7,1.41h.7Z"/>
              <path class="cls-4" d="M123.5,17.02c-.2,0-.36-.16-.36-.36v-1.41c0-.2,.16-.36,.36-.36h1.41c.2,0,.36,.16,.36,.36,0,.66-1.11,1.77-1.77,1.77Z"/>
              <path class="cls-4" d="M123.5,16.66c.47,0,1.41-.94,1.41-1.41h-1.41v1.41Z"/>
              <path class="cls-4" d="M67.9,20.54c-.12,0-.23-.06-.29-.15-.07-.1-.08-.22-.04-.33,.12-.34,.19-.54,.23-.68,.09-.28,.11-.32,.28-.53,.06-.07,.13-.16,.25-.3,.07-.09,.17-.14,.28-.14,.04,0,.08,0,.12,.02,.15,.05,.24,.19,.24,.34v1.41c0,.2-.16,.36-.36,.36h-.7Z"/>
              <path class="cls-4" d="M68.61,18.77c-.57,.72-.26,.17-.7,1.41h.7v-1.41Z"/>
              <path class="cls-4" d="M15.83,128.92c-.07,0-.14-.02-.21-.06-.1-.07-.16-.18-.16-.3v-.7c0-.2,.16-.36,.36-.36h1.41c.15,0,.29,.1,.34,.24,.05,.15,0,.31-.12,.4l-.27,.22c-.23,.19-.27,.21-.54,.3-.13,.04-.33,.11-.7,.24-.04,.02-.08,.02-.13,.02Z"/>
              <path class="cls-4" d="M15.83,127.85v.7c1.21-.45,.69-.14,1.41-.7h-1.41Z"/>
              <path class="cls-4" d="M23.57,125.39c-.34,0-.52-.34-.58-.45-.08-.16-.04-.35,.1-.46,.06-.05,.14-.07,.22-.07,.09,0,.18,.04,.25,.1l.27,.27c.1,.1,.13,.26,.08,.39-.06,.14-.19,.22-.33,.22Z"/>
              <path class="cls-4" d="M23.57,125.03l-.27-.27c.09,.16,.18,.27,.27,.27Z"/>
              <path class="cls-4" d="M23.3,125.12c-.09,0-.18-.04-.25-.1l-1.14-1.13c-.07-.07-.11-.16-.11-.26v-1.41c0-.2,.16-.36,.36-.36,.49,0,.71,.66,1.05,1.65,.14,.41,.28,.84,.41,1.08,.08,.16,.04,.35-.1,.46-.06,.05-.14,.07-.22,.07Z"/>
              <path class="cls-4" d="M22.16,122.22v1.41l1.14,1.13c-.38-.7-.76-2.54-1.14-2.54Z"/>
              <path class="cls-4" d="M168.39,99.6c-.07,0-.14-.02-.21-.06-.1-.07-.16-.18-.16-.3v-.7c0-.2,.16-.36,.36-.36h1.41c.15,0,.29,.1,.34,.24,.05,.15,0,.31-.12,.4l-.27,.22c-.23,.19-.27,.21-.54,.3-.13,.04-.33,.11-.7,.24-.04,.02-.08,.02-.13,.02Z"/>
              <path class="cls-4" d="M168.39,98.53v.7c1.21-.45,.69-.14,1.41-.7h-1.41Z"/>
              <path class="cls-4" d="M6.68,146.51c-.12,0-.23-.06-.29-.15-.07-.1-.08-.22-.04-.33,.12-.34,.19-.54,.23-.67,.09-.29,.11-.33,.29-.53,.05-.07,.13-.16,.25-.3,.07-.09,.17-.14,.28-.14,.04,0,.08,0,.12,.02,.15,.05,.24,.19,.24,.34v1.41c0,.2-.16,.36-.36,.36h-.71Z"/>
              <path class="cls-4" d="M7.38,144.74c-.57,.72-.26,.17-.7,1.41h.7v-1.41Z"/>
              <path class="cls-4" d="M54.53,147.21c-.07,0-.14-.02-.21-.06-.1-.07-.16-.18-.16-.3v-.7c0-.2,.16-.36,.36-.36h1.41c.15,0,.29,.1,.34,.24,.05,.15,0,.31-.12,.4l-.27,.22c-.23,.19-.27,.21-.54,.29-.13,.04-.33,.11-.7,.24-.04,.02-.08,.02-.13,.02Z"/>
              <path class="cls-4" d="M54.53,146.85c1.21-.45,.69-.14,1.41-.7h-1.41v.7Z"/>
              <path class="cls-4" d="M150.01,68.51c-.19,0-.32-.1-.41-.16-.08-.06-.11-.08-.21-.08-.07,0-.21,.02-.43,.1-.04,.02-.08,.02-.13,.02-.05,0-.11-.01-.15-.04-.09-.04-.16-.12-.19-.21-.12-.37-.1-.68,.06-.9,.23-.32,.64-.35,.92-.35,.22,0,.47,.03,.71,.05,.2,.02,.39,.04,.55,.04,.05,0,.1,0,.15-.01,.02,0,.04,0,.07,0,.13,0,.25,.07,.31,.18,.08,.13,.06,.3-.04,.42-.62,.72-.9,.94-1.21,.94Z"/>
              <path class="cls-4" d="M148.83,68.03c1.44-.55,.66,.98,2.11-.7-.68,.13-2.54-.58-2.11,.7Z"/>
              <path class="cls-4" d="M97.72,88.75c-.12,0-.24-.06-.3-.17-.08-.13-.08-.3,.02-.42l.87-1.11c.06-.08,.15-.12,.24-.13,.01,0,.03,0,.04,0,.08,0,.16,.03,.22,.08l.55,.44c.09,.07,.14,.19,.14,.3,0,.12-.07,.22-.17,.29-.31,.19-.48,.31-.6,.39-.25,.17-.29,.18-.55,.24-.08,.02-.2,.04-.38,.09-.03,0-.06,.01-.08,.01Z"/>
              <path class="cls-4" d="M97.72,88.39c.89-.22,.31,.02,1.42-.67l-.55-.44-.87,1.11Z"/>
              <path class="cls-4" d="M117.87,70.51c-.12,0-.23-.06-.29-.15-.07-.1-.08-.22-.04-.33,.12-.34,.19-.55,.23-.68,.09-.28,.11-.32,.28-.53,.05-.07,.13-.16,.25-.3,.07-.09,.17-.14,.28-.14,.04,0,.08,0,.12,.02,.15,.05,.24,.19,.24,.34v1.41c0,.2-.16,.36-.36,.36h-.7Z"/>
              <path class="cls-4" d="M118.57,70.15v-1.41c-.57,.72-.26,.17-.7,1.41h.7Z"/>
              <path class="cls-4" d="M24.27,102.17c-.08,0-.15-.02-.21-.07-.19-.14-.34-.24-.46-.32-.25-.17-.42-.28-.44-.52-.02-.23,.13-.36,.28-.49,.12-.11,.31-.28,.55-.59,.07-.09,.17-.14,.28-.14,.04,0,.08,0,.12,.02,.15,.05,.24,.19,.24,.34v1.41c0,.14-.08,.26-.2,.32-.05,.03-.11,.04-.16,.04Z"/>
              <path class="cls-4" d="M24.27,100.41c-.86,1.11-1.13,.57,0,1.41v-1.41Z"/>
              <path class="cls-4" d="M146.02,158.47c-.12,0-.23-.06-.29-.15s-.08-.22-.04-.33c.12-.34,.19-.54,.23-.68,.09-.28,.11-.32,.28-.53,.06-.07,.13-.16,.25-.3,.07-.09,.17-.14,.28-.14,.04,0,.08,0,.12,.02,.15,.05,.24,.19,.24,.34v1.41c0,.2-.16,.36-.36,.36h-.7Z"/>
              <path class="cls-4" d="M146.72,158.11v-1.41c-.57,.72-.26,.17-.7,1.41h.7Z"/>
              <path class="cls-4" d="M29.9,177.1c-.08,0-.16-.03-.22-.07-.09-.07-.14-.17-.14-.29v-.7c0-.2,.16-.36,.36-.36h.58l.18-.14c.23-.19,.27-.21,.54-.29,.13-.04,.33-.11,.7-.24,.04-.02,.08-.02,.13-.02,.1,0,.2,.04,.27,.13,.1,.12,.11,.28,.04,.41-.27,.47-.38,.74-.44,.9-.13,.32-.24,.43-.61,.45-.18,0-.52,.02-1.28,.23-.03,0-.06,.01-.09,.01Z"/>
              <path class="cls-4" d="M32.01,175.33c-1.21,.45-.69,.14-1.41,.7h-.7v.7c2.26-.61,1.09,.38,2.11-1.41Z"/>
              <path class="cls-4" d="M30.02,150.01c-.55,0-1.08-.36-1.26-.86-.17-.42-.06-.74,.07-.94,.39-.59,1.34-.64,1.62-.64,.3,0,1.04,.05,1.31,.47,.06,.09,.07,.21,.03,.32-.54,1.43-1.34,1.64-1.77,1.64h0Z"/>
              <path class="cls-4" d="M29.1,149.03c.24,.68,1.59,1.24,2.36-.79-.33-.53-2.86-.44-2.36,.79Z"/>
              <path class="cls-4" d="M98.17,184.49c-.59,0-.92-.67-1.03-.89-.25-.51-.16-.86-.04-1.06,.2-.33,.63-.5,1.21-.5s1.19,.18,1.49,.43c.09,.07,.13,.18,.13,.3s-.07,.22-.16,.28c-.09,.06-.25,.28-.37,.46-.33,.46-.7,.99-1.23,.99h0Z"/>
              <path class="cls-4" d="M97.46,183.45c.87,1.75,1.58-.36,2.11-.7-.55-.46-2.78-.65-2.11,.7Z"/>
              <path class="cls-4" d="M160.99,31.37c-.46,0-.84-.25-1.05-.71-.43-.92-.14-2.6,.39-3.24,.07-.08,.17-.13,.28-.13,0,0,.01,0,.02,0,.11,0,.22,.07,.28,.16,.1,.16,.43,.39,.74,.61,.68,.48,1.46,1.03,1.4,1.77-.04,.49-.44,.92-1.23,1.31-.3,.15-.58,.22-.83,.22h0Z"/>
              <path class="cls-4" d="M160.61,27.65c-.7,.83-.97,4.17,1.06,3.17,2.63-1.3-.54-2.36-1.06-3.17Z"/>
              <path class="cls-4" d="M-.51,11.96c-.2,0-.36-.16-.36-.36v-3.17c0-.16,.1-.3,.25-.34,.04-.01,.07-.02,.11-.02,.12,0,.23,.06,.29,.15,.67,.96,.71,1.1,.93,2.32,.05,.27,.11,.59,.18,.99,.02,.11,0,.21-.08,.3s-.17,.13-.28,.13H-.51Z"/>
              <path class="cls-4" d="M-.51,11.6H.55c-.42-2.17-.26-2.03-1.06-3.17v3.17Z"/>
              <path class="cls-4" d="M22.42,10.79c-.06,0-.13-.02-.19-.05-.11-.06-.17-.18-.17-.31v-2.11c0-.16,.1-.3,.26-.34,.03-.01,.07-.02,.1-.02,.12,0,.23,.06,.3,.16,.35,.52,.66,.82,.86,1.02,.21,.21,.39,.39,.35,.65-.04,.29-.28,.41-.84,.7l-.5,.26c-.05,.03-.11,.04-.17,.04Z"/>
              <path class="cls-4" d="M22.42,8.32v2.11c1.87-.98,1.18-.36,0-2.11Z"/>
              <path class="cls-4" d="M129.3,61.56c-.11,0-.21-.05-.28-.14-.15-.19-.25-.32-.33-.41-.27-.32-.29-.37-.41-.74-.06-.19-.16-.5-.37-1.05-.04-.11-.03-.23,.04-.33s.18-.16,.3-.16h2.11c.15,0,.28,.09,.33,.22s.02,.29-.08,.39l-.95,.95v.91c0,.15-.1,.29-.24,.34-.04,.01-.08,.02-.12,.02Z"/>
              <path class="cls-4" d="M129.3,61.2v-1.06c.35-.35,.7-.7,1.06-1.05h-2.11c.68,1.82,.21,1.03,1.06,2.11Z"/>
              <path class="cls-4" d="M116.64,2.46s-.08,0-.12-.02c-.52-.19-.82-.28-1.02-.35-.4-.13-.44-.15-.73-.39-.1-.08-.24-.2-.46-.37-.12-.09-.17-.26-.12-.4,.05-.15,.19-.24,.34-.24h2.11c.2,0,.36,.16,.36,.36v1.06c0,.12-.06,.23-.15,.29-.06,.04-.13,.07-.21,.07Z"/>
              <path class="cls-4" d="M116.64,2.1V1.05h-2.11c1.09,.85,.26,.39,2.11,1.06Z"/>
              <path class="cls-4" d="M102.76,40.43s-.08,0-.12-.02c-.52-.19-.82-.28-1.02-.35-.4-.13-.44-.15-.73-.39-.1-.08-.24-.2-.46-.37-.12-.09-.17-.26-.12-.4,.05-.15,.19-.24,.34-.24h2.11c.2,0,.36,.16,.36,.36v1.06c0,.12-.06,.23-.15,.29-.06,.04-.13,.07-.21,.07Z"/>
              <path class="cls-4" d="M102.76,40.07v-1.06h-2.11c1.09,.85,.26,.39,2.11,1.06Z"/>
              <path class="cls-4" d="M164.13,187.15c-.2,0-.36-.16-.36-.36v-2.11c0-.15,.1-.29,.24-.34,.04-.01,.08-.02,.12-.02,.11,0,.21,.05,.28,.14,.15,.19,.25,.32,.33,.41,.27,.33,.29,.37,.41,.74,.06,.19,.16,.5,.37,1.05,.04,.11,.03,.23-.04,.33s-.18,.16-.3,.16h-1.06Z"/>
              <path class="cls-4" d="M164.13,186.79h1.06c-.68-1.82-.21-1.03-1.06-2.11v2.11Z"/>
              <path class="cls-4" d="M166.24,113.28c-.11,0-.21-.05-.28-.14-.15-.19-.25-.32-.33-.41-.27-.33-.29-.37-.41-.75-.06-.19-.16-.5-.36-1.05-.04-.11-.03-.23,.04-.33s.18-.16,.3-.16h2.11c.15,0,.28,.09,.33,.22,.06,.13,.03,.29-.08,.39l-.95,.95v.91c0,.15-.1,.29-.24,.34-.04,.01-.08,.02-.12,.02Z"/>
              <path class="cls-4" d="M166.24,111.86c.35-.35,.7-.7,1.06-1.06h-2.11c.68,1.82,.21,1.03,1.06,2.11v-1.06Z"/>
              <path class="cls-4" d="M77.95,177.15c-.23,0-.38-.16-.56-.36-.17-.19-.43-.48-.9-.84-.12-.09-.17-.26-.12-.4s.19-.24,.34-.24h2.11c.14,0,.26,.08,.32,.2s.05,.27-.03,.38c-.22,.29-.37,.52-.48,.69-.25,.37-.39,.58-.67,.58h0Z"/>
              <path class="cls-4" d="M78.82,175.66h-2.11c1.67,1.29,.86,1.7,2.11,0Z"/>
              <path class="cls-4" d="M58.59,157.6c-.2,0-.36-.16-.36-.36v-2.11c0-.15,.1-.29,.24-.34,.04-.01,.08-.02,.12-.02,.11,0,.21,.05,.28,.14,.15,.19,.25,.32,.33,.41,.27,.33,.29,.37,.41,.74,.06,.19,.16,.5,.37,1.05,.04,.11,.03,.23-.04,.33s-.18,.16-.3,.16h-1.06Z"/>
              <path class="cls-4" d="M58.59,155.13v2.11h1.06c-.68-1.82-.21-1.03-1.06-2.11Z"/>
              <path class="cls-4" d="M58.59,186.1c-.2,0-.36-.16-.36-.36v-2.11c0-.15,.1-.29,.24-.34,.04-.01,.08-.02,.12-.02,.11,0,.21,.05,.28,.14,.15,.19,.25,.32,.33,.41,.27,.33,.29,.37,.41,.74,.06,.19,.16,.5,.37,1.05,.04,.11,.03,.23-.04,.33s-.18,.16-.3,.16h-1.06Z"/>
              <path class="cls-4" d="M58.59,183.63v2.11h1.06c-.68-1.82-.21-1.03-1.06-2.11Z"/>
              <path class="cls-4" d="M102.92,148.1s-.08,0-.12-.02c-.52-.19-.82-.28-1.02-.35-.4-.13-.44-.15-.73-.39-.1-.08-.24-.2-.46-.37-.12-.09-.17-.26-.12-.4,.05-.15,.19-.24,.34-.24h2.11c.2,0,.36,.16,.36,.36v1.06c0,.12-.06,.23-.15,.29-.06,.04-.13,.07-.21,.07Z"/>
              <path class="cls-4" d="M102.92,147.74v-1.06h-2.11c1.09,.85,.26,.39,2.11,1.06Z"/>
              <path class="cls-4" d="M90.25,6.68s-.08,0-.12-.02c-.52-.19-.82-.28-1.02-.35-.4-.13-.44-.15-.73-.39-.1-.08-.24-.2-.46-.37-.12-.09-.17-.26-.12-.4,.05-.15,.19-.24,.34-.24h2.11c.2,0,.36,.16,.36,.36v1.05c0,.12-.06,.23-.15,.29-.06,.04-.13,.07-.21,.07Z"/>
              <path class="cls-4" d="M90.25,5.27h-2.11c1.09,.85,.26,.39,2.11,1.05v-1.05Z"/>
              <path class="cls-4" d="M55.33,45.94c-1.07,0-1.45-.52-1.58-.83-.27-.63,0-1.44,.71-2.17,.07-.07,.16-.11,.26-.11h0c.1,0,.19,.04,.25,.1l2.11,2.11c.09,.09,.12,.22,.1,.34-.03,.12-.12,.22-.24,.26-.6,.2-1.15,.3-1.61,.3h0Z"/>
              <path class="cls-4" d="M56.83,45.29c-.7-.7-1.41-1.41-2.11-2.11-1.41,1.46-.72,3.06,2.11,2.11Z"/>
            </g>
          </g>
          <path class="cls-4" d="M67.66,107.38c-.3,0-.56-.13-.68-.35-.21-.27-.27-.44-.22-.91,.04-.31,.3-.64,.94-.64,.13,0,.45,.01,.62,.15,.21,.17,.25,.55,.25,.71,.01,.23-.02,.55-.23,.76-.17,.17-.42,.27-.69,.27Z"/>
          <path class="cls-4" d="M67.12,106.17c.05-.42,.86-.34,.97-.25s.21,.73,0,.94-.67,.21-.79,0-.24-.16-.18-.69Z"/>
          <path class="cls-4" d="M3.69,174.59c-.1,0-.24-.01-.37-.06-.46-.16-.79-.35-.93-1.19-.04-.27,0-.48,.13-.63,.11-.13,.27-.2,.45-.2,.49,0,1.13,.51,1.44,.81,.34,.34,.29,.64,.23,.78-.14,.35-.58,.47-.94,.47Z"/>
          <path class="cls-4" d="M2.75,173.28c-.13-.8,.85-.24,1.4,.3s-.36,.73-.7,.61-.58-.18-.7-.91Z"/>
        </g>
        <path class="cls-4" d="M148.46,137.07c-.07,0-.14-.02-.21-.06-.1-.07-.16-.18-.16-.3v-.7c0-.2,.16-.36,.36-.36h1.41c.15,0,.29,.1,.34,.24,.05,.15,0,.31-.12,.4l-.27,.22c-.23,.19-.27,.21-.54,.3-.13,.04-.33,.11-.7,.24-.04,.02-.08,.02-.13,.02Z"/>
      </g>
    </g>
  </g>
</svg>