<?xml version="1.0" encoding="UTF-8"?>
<svg id="Layer_2" data-name="Layer 2" xmlns="http://www.w3.org/2000/svg" xmlns:xlink="http://www.w3.org/1999/xlink" viewBox="0 0 171 222.75">
  <g id="Layer_1-2" data-name="Layer 1">

  

      <g>
        <path class="cls-4" d="M130.49,161.81H40.51c-12.92,0-23.44-10.51-23.44-23.44s10.51-23.44,23.44-23.44h89.97c12.92,0,23.44,10.51,23.44,23.44s-10.51,23.44-23.44,23.44ZM40.51,116.3c-12.17,0-22.08,9.9-22.08,22.08s9.9,22.08,22.08,22.08h89.97c12.17,0,22.08-9.9,22.08-22.08s-9.9-22.08-22.08-22.08H40.51Z"/>
        <path class="cls-4" d="M130.49,182.75H40.51c-24.47,0-44.37-19.91-44.37-44.37s19.91-44.37,44.37-44.37h89.97c24.47,0,44.37,19.91,44.37,44.37s-19.91,44.37-44.37,44.37ZM40.51,95.37c-23.72,0-43.01,19.29-43.01,43.01s19.29,43.01,43.01,43.01h89.97c23.72,0,43.01-19.29,43.01-43.01s-19.29-43.01-43.01-43.01H40.51Z"/>
        <path class="cls-4" d="M130.49,172.28H40.51c-18.7,0-33.91-15.21-33.91-33.91s15.21-33.91,33.91-33.91h89.97c18.7,0,33.91,15.21,33.91,33.91s-15.21,33.91-33.91,33.91ZM40.51,105.83c-17.94,0-32.54,14.6-32.54,32.54s14.6,32.54,32.54,32.54h89.97c17.94,0,32.54-14.6,32.54-32.54s-14.6-32.54-32.54-32.54H40.51Z"/>
        <path class="cls-4" d="M130.49,161.81H40.51c-12.92,0-23.44-10.51-23.44-23.44s10.51-23.44,23.44-23.44h89.97c12.92,0,23.44,10.51,23.44,23.44s-10.51,23.44-23.44,23.44ZM40.51,116.3c-12.17,0-22.08,9.9-22.08,22.08s9.9,22.08,22.08,22.08h89.97c12.17,0,22.08-9.9,22.08-22.08s-9.9-22.08-22.08-22.08H40.51Z"/>
        <g>
          <g>
            <path class="cls-4" d="M44.22,135.73h1.5v5.29h-1.5v-5.29Z"/>
            <path class="cls-4" d="M52.41,135.73v5.29h-1.23l-2.33-2.82v2.82h-1.47v-5.29h1.23l2.33,2.82v-2.82h1.46Z"/>
            <path class="cls-4" d="M59.11,135.73v5.29h-1.49v-2.06h-2.04v2.06h-1.5v-5.29h1.5v1.99h2.04v-1.99h1.49Z"/>
            <path class="cls-4" d="M64.32,139.99h-2.24l-.41,1.03h-1.53l2.33-5.29h1.47l2.34,5.29h-1.56l-.41-1.03Zm-.44-1.1l-.68-1.69-.68,1.69h1.36Z"/>
            <path class="cls-4" d="M67.33,135.73h1.5v4.1h2.52v1.19h-4.02v-5.29Z"/>
            <path class="cls-4" d="M76.79,139.86v1.16h-4.25v-5.29h4.15v1.16h-2.67v.89h2.35v1.12h-2.35v.97h2.76Z"/>
            <path class="cls-4" d="M83.83,134.84h1.31v7.07h-1.31v-7.07Z"/>
            <path class="cls-4" d="M96.67,139.86v1.16h-4.25v-5.29h4.15v1.16h-2.67v.89h2.35v1.12h-2.35v.97h2.76Z"/>
            <path class="cls-4" d="M101.4,141.02l-1.09-1.64-1.08,1.64h-1.71l1.93-2.67-1.84-2.61h1.68l1.06,1.53,1.04-1.53h1.62l-1.84,2.55,1.96,2.73h-1.72Z"/>
            <path class="cls-4" d="M109.11,135.73v5.29h-1.49v-2.06h-2.04v2.06h-1.5v-5.29h1.5v1.99h2.04v-1.99h1.49Z"/>
            <path class="cls-4" d="M114.32,139.99h-2.24l-.41,1.03h-1.53l2.33-5.29h1.47l2.34,5.29h-1.56l-.41-1.03Zm-.44-1.1l-.68-1.69-.68,1.69h1.36Z"/>
            <path class="cls-4" d="M117.32,135.73h1.5v4.1h2.52v1.19h-4.02v-5.29Z"/>
            <path class="cls-4" d="M126.78,139.86v1.16h-4.25v-5.29h4.15v1.16h-2.67v.89h2.35v1.12h-2.35v.97h2.76Z"/>
          </g>
          <path class="cls-4" d="M130.49,151.35H40.51c-7.15,0-12.97-5.82-12.97-12.97s5.82-12.97,12.97-12.97h89.97c7.15,0,12.97,5.82,12.97,12.97s-5.82,12.97-12.97,12.97Zm-89.97-24.58c-6.4,0-11.61,5.21-11.61,11.61s5.21,11.61,11.61,11.61h89.97c6.4,0,11.61-5.21,11.61-11.61s-5.21-11.61-11.61-11.61H40.51Z"/>
          <path class="cls-4" d="M130.49,151.35H40.51c-7.15,0-12.97-5.82-12.97-12.97s5.82-12.97,12.97-12.97h89.97c7.15,0,12.97,5.82,12.97,12.97s-5.82,12.97-12.97,12.97Zm-89.97-24.58c-6.4,0-11.61,5.21-11.61,11.61s5.21,11.61,11.61,11.61h89.97c6.4,0,11.61-5.21,11.61-11.61s-5.21-11.61-11.61-11.61H40.51Z"/>
          <path class="cls-4" d="M130.49,339.75H40.51c-111.04,0-201.37-90.34-201.37-201.37S-70.52-63,40.51-63h89.97c111.04,0,201.37,90.34,201.37,201.37s-90.34,201.37-201.37,201.37ZM40.51-61.64c-110.29,0-200.01,89.72-200.01,200.01S-69.77,338.39,40.51,338.39h89.97c110.29,0,200.01-89.72,200.01-200.01S240.77-61.64,130.49-61.64H40.51Z"/>
          <path class="cls-4" d="M130.49,329.28H40.51c-105.27,0-190.91-85.64-190.91-190.91S-64.75-52.53,40.51-52.53h89.97c105.27,0,190.91,85.64,190.91,190.91s-85.64,190.91-190.91,190.91ZM40.51-51.17c-104.52,0-189.55,85.03-189.55,189.54S-64,327.92,40.51,327.92h89.97c104.52,0,189.54-85.03,189.54-189.55S235-51.17,130.49-51.17H40.51Z"/>
          <path class="cls-4" d="M130.49,318.81H40.51c-99.49,0-180.44-80.95-180.44-180.44S-58.98-42.07,40.51-42.07h89.97c99.49,0,180.44,80.95,180.44,180.44s-80.95,180.44-180.44,180.44ZM40.51-40.7c-98.74,0-179.08,80.33-179.08,179.08S-58.23,317.45,40.51,317.45h89.97c98.74,0,179.08-80.33,179.08-179.08S229.23-40.7,130.49-40.7H40.51Z"/>
          <path class="cls-4" d="M130.49,308.35H40.51c-93.72,0-169.97-76.25-169.97-169.97S-53.21-31.6,40.51-31.6h89.97c93.72,0,169.97,76.25,169.97,169.97s-76.25,169.97-169.97,169.97ZM40.51-30.24c-92.97,0-168.61,75.64-168.61,168.61S-52.46,306.99,40.51,306.99h89.97c92.97,0,168.61-75.64,168.61-168.61S223.46-30.24,130.49-30.24H40.51Z"/>
          <path class="cls-4" d="M130.49,297.88H40.51c-87.95,0-159.51-71.55-159.51-159.51S-47.44-21.13,40.51-21.13h89.97c87.95,0,159.51,71.55,159.51,159.51s-71.55,159.51-159.51,159.51ZM40.51-19.77c-87.2,0-158.14,70.94-158.14,158.14S-46.69,296.52,40.51,296.52h89.97c87.2,0,158.14-70.94,158.14-158.15S217.69-19.77,130.49-19.77H40.51Z"/>
        </g>
        <path class="cls-4" d="M130.49,287.42H40.51c-82.18,0-149.04-66.86-149.04-149.04S-41.67-10.67,40.51-10.67h89.97c82.18,0,149.04,66.86,149.04,149.04s-66.86,149.04-149.04,149.04ZM40.51-9.3C-40.92-9.3-107.16,56.95-107.16,138.37S-40.92,286.05,40.51,286.05h89.97c81.43,0,147.68-66.25,147.68-147.68S211.92-9.3,130.49-9.3H40.51Z"/>
        <path class="cls-4" d="M130.49,276.95H40.51c-76.41,0-138.57-62.16-138.57-138.57S-35.9-.2,40.51-.2h89.97c76.41,0,138.57,62.16,138.57,138.57s-62.16,138.57-138.57,138.57ZM40.51,1.16C-35.14,1.16-96.7,62.72-96.7,138.37S-35.14,275.59,40.51,275.59h89.97c75.66,0,137.21-61.55,137.21-137.21S206.15,1.16,130.49,1.16H40.51Z"/>
        <path class="cls-4" d="M130.49,266.48H40.51c-70.64,0-128.11-57.47-128.11-128.11S-30.12,10.27,40.51,10.27h89.97c70.64,0,128.11,57.47,128.11,128.11s-57.47,128.11-128.11,128.11ZM40.51,11.63c-69.89,0-126.74,56.86-126.74,126.74s56.86,126.74,126.74,126.74h89.97c69.89,0,126.74-56.86,126.74-126.74S200.37,11.63,130.49,11.63H40.51Z"/>
        <path class="cls-4" d="M130.49,256.01H40.51c-64.87,0-117.64-52.77-117.64-117.64S-24.35,20.74,40.51,20.74h89.97c64.87,0,117.64,52.77,117.64,117.64s-52.77,117.64-117.64,117.64ZM40.51,22.1c-64.12,0-116.28,52.16-116.28,116.28S-23.6,254.65,40.51,254.65h89.97c64.12,0,116.28-52.16,116.28-116.28S194.6,22.1,130.49,22.1H40.51Z"/>
        <path class="cls-4" d="M130.49,245.55H40.51c-59.1,0-107.17-48.08-107.17-107.17S-18.58,31.2,40.51,31.2h89.97c59.1,0,107.17,48.08,107.17,107.17s-48.08,107.17-107.17,107.17ZM40.51,32.56c-58.34,0-105.81,47.47-105.81,105.81S-17.83,244.19,40.51,244.19h89.97c58.34,0,105.81-47.47,105.81-105.81s-47.47-105.81-105.81-105.81H40.51Z"/>
        <path class="cls-4" d="M130.49,235.08H40.51c-53.32,0-96.71-43.38-96.71-96.71S-12.81,41.67,40.51,41.67h89.97c53.32,0,96.71,43.38,96.71,96.71s-43.38,96.71-96.71,96.71ZM40.51,43.03c-52.57,0-95.34,42.77-95.34,95.34S-12.06,233.72,40.51,233.72h89.97c52.57,0,95.34-42.77,95.34-95.34s-42.77-95.34-95.34-95.34H40.51Z"/>
        <path class="cls-4" d="M130.49,224.61H40.51c-47.55,0-86.24-38.69-86.24-86.24S-7.04,52.14,40.51,52.14h89.97c47.55,0,86.24,38.69,86.24,86.24s-38.69,86.24-86.24,86.24ZM40.51,53.5c-46.8,0-84.88,38.08-84.88,84.88S-6.29,223.25,40.51,223.25h89.97c46.8,0,84.88-38.08,84.88-84.88s-38.08-84.88-84.88-84.88H40.51Z"/>
        <path class="cls-4" d="M130.49,214.15H40.51c-41.78,0-75.77-33.99-75.77-75.77S-1.27,62.6,40.51,62.6h89.97c41.78,0,75.77,33.99,75.77,75.77s-33.99,75.77-75.77,75.77ZM40.51,63.96C-.52,63.96-33.9,97.34-33.9,138.37S-.52,212.78,40.51,212.78h89.97c41.03,0,74.41-33.38,74.41-74.41s-33.38-74.41-74.41-74.41H40.51Z"/>
        <path class="cls-4" d="M130.49,203.68H40.51c-36.01,0-65.31-29.3-65.31-65.31S4.5,73.07,40.51,73.07h89.97c36.01,0,65.31,29.3,65.31,65.31s-29.3,65.31-65.31,65.31ZM40.51,74.43c-35.26,0-63.94,28.68-63.94,63.94s28.69,63.94,63.94,63.94h89.97c35.26,0,63.94-28.68,63.94-63.94s-28.69-63.94-63.94-63.94H40.51Z"/>
        <path class="cls-4" d="M130.49,193.21H40.51c-30.24,0-54.84-24.6-54.84-54.84s24.6-54.84,54.84-54.84h89.97c30.24,0,54.84,24.6,54.84,54.84s-24.6,54.84-54.84,54.84ZM40.51,84.9c-29.49,0-53.48,23.99-53.48,53.48s23.99,53.48,53.48,53.48h89.97c29.49,0,53.48-23.99,53.48-53.48s-23.99-53.48-53.48-53.48H40.51Z"/>
        <path class="cls-4" d="M130.49,182.75H40.51c-24.47,0-44.37-19.91-44.37-44.37s19.91-44.37,44.37-44.37h89.97c24.47,0,44.37,19.91,44.37,44.37s-19.91,44.37-44.37,44.37ZM40.51,95.37c-23.72,0-43.01,19.29-43.01,43.01s19.29,43.01,43.01,43.01h89.97c23.72,0,43.01-19.29,43.01-43.01s-19.29-43.01-43.01-43.01H40.51Z"/>
      </g>
  
  </g>
</svg>