<?xml version="1.0" encoding="UTF-8"?>
<svg id="Layer_2" data-name="Layer 2" xmlns="http://www.w3.org/2000/svg" xmlns:xlink="http://www.w3.org/1999/xlink" viewBox="0 0 168.75 190.57">
  <defs>
    <style>
      .cls-1 {
        fill: none;
      }

      .cls-2 {
        clip-path: url(#clippath);
      }

      .cls-3 {
        fill: #00adee;
      }

      .cls-4 {
        clip-path: url(#clippath-1);
      }
    </style>
    <clipPath id="clippath">
      <rect class="cls-1" width="168.75" height="190.57"/>
    </clipPath>
    <clipPath id="clippath-1">
      <path class="cls-1" d="M689.63,187.72h0V69.76h-135.69c-8.13,0-15.28,5.55-17.39,13.5l-10.76,40.64h0l-10.73,40.5-9.93,10.05v8.33h-157.5s0-8.33,0-8.33l-9.93-10.05-21.49-81.15c-2.11-7.95-9.26-13.5-17.39-13.5h-119.94s.29,.19,.29,.19h-.29v-.19s0-49.77,0-49.77h-.01c-.12-22.52-8.56-43.94-23.8-60.37l-2.67-2.87H16.36l-2.67,2.87C-1.55-23.95-9.98-2.53-10.11,19.99h-.01v49.96s0,114.94,0,114.94l-54,14.64v132.71S-5.62,391.44-5.62,391.44v139.65H40.86s50.27-50.87,50.27-50.87v-3.77h9.77s54,54.64,54,54.64h19.48v-92.69s6.63,38.06,6.63,38.06h79.11s76.26-78.95,76.26-78.95v133.59h46.48s50.27-50.87,50.27-50.87v-3.77h9.77s54,54.64,54,54.64h19.48v-92.69s6.63,38.05,6.63,38.05h76.8s89.82-90.88,89.82-90.88h0V187.72Z"/>
    </clipPath>
  </defs>
  <g id="Layer_1-2" data-name="Layer 1">
    <g class="cls-2">
      <rect class="cls-1" x="-1.12" y="20.49" width="171" height="169.92"/>
      <g class="cls-4">
        <g>
          <g>
            <path class="cls-3" d="M71.73,135.6c-.38,0-.78-.29-1.16-.61l-.08-.06s-.18-.09-.36-.61c-.05-.16,0-.33,.14-.42,.19-.13,.87-.23,1.32-.23s.76,.09,.96,.26c.2,.18,.29,.42,.25,.68-.06,.42-.46,.78-.8,.94-.08,.04-.18,.06-.27,.06Z"/>
            <path class="cls-3" d="M70.48,134.2c.13-.08,1.46-.34,1.83,0s-.08,.84-.46,1.01-1.08-.55-1.17-.59-.21-.42-.21-.42Z"/>
            <g>
              <path class="cls-3" d="M-.09,71.03c-.08,0-.15-.02-.21-.07-.19-.14-.34-.25-.46-.32-.25-.17-.42-.29-.44-.52-.02-.23,.13-.37,.28-.5,.12-.11,.31-.28,.55-.59,.07-.09,.18-.14,.28-.14,.04,0,.08,0,.12,.02,.15,.05,.24,.19,.24,.34v1.42c0,.14-.08,.26-.2,.33-.05,.03-.11,.04-.16,.04Z"/>
              <path class="cls-3" d="M125.55,92.71c-.06-.08-.08-.18-.07-.28,.03-.15,.14-.26,.28-.29,.54-.12,.9-.21,1.15-.28,.42-.11,.72-.2,.94,.1,.06,.07,.09,.16,.13,.26,.07,.18,.18,.45,.49,.87,.08,.11,.12,.29,.05,.42-.07,.12-.18,.23-.32,.22-.23-.01-.41-.02-.56-.02-.69-.02-.75-.05-1.39-.48-.16-.11-.36-.24-.62-.42-.04-.02-.07-.05-.09-.09Z"/>
              <path class="cls-3" d="M125.84,92.5c1.49,.98,.9,.78,2.39,.87-1.19-1.59,.1-1.39-2.39-.87Z"/>
              <path class="cls-3" d="M123.06,24.04s-.09,0-.14-.03c-.13-.06-.22-.19-.22-.34v-1.42c0-.2,.16-.36,.36-.36h1.41c.15,0,.28,.09,.33,.22,.06,.14,.02,.29-.08,.4l-1.41,1.42c-.07,.07-.16,.11-.25,.11Z"/>
              <path class="cls-3" d="M123.06,22.25v1.42l1.41-1.42h-1.41Z"/>
              <path class="cls-3" d="M24.54,26.17c-.09,0-.19-.04-.25-.11l-.7-.71c-.07-.07-.1-.16-.1-.26v-.71c0-.2,.16-.36,.36-.36h2.81c.13,0,.25,.07,.31,.18,.06,.11,.06,.25,0,.36-.27,.48-.38,.75-.44,.91-.13,.33-.24,.44-.61,.46-.18,0-.52,.02-1.28,.23-.03,0-.06,.01-.09,.01Z"/>
              <path class="cls-3" d="M26.65,24.38h-2.81v.71c.23,.24,.47,.47,.7,.71,2.26-.62,1.09,.39,2.11-1.42Z"/>
              <path class="cls-3" d="M56.91,155.05c-.12,0-.23-.06-.29-.15s-.08-.22-.04-.33c.12-.35,.19-.55,.23-.68,.09-.29,.11-.33,.28-.54,.06-.07,.13-.16,.25-.31,.07-.09,.17-.14,.28-.14,.04,0,.08,0,.12,.02,.15,.05,.24,.19,.24,.34v1.42c0,.2-.16,.36-.36,.36h-.7Z"/>
              <path class="cls-3" d="M57.62,153.26c-.57,.73-.26,.17-.7,1.42h.7v-1.42Z"/>
              <path class="cls-3" d="M115.32,127.28c-.09,0-.19-.04-.25-.11l-.7-.71c-.07-.07-.11-.16-.11-.26v-.71c0-.2,.16-.36,.36-.36h2.11c.13,0,.24,.07,.31,.18,.06,.11,.07,.25,.01,.36-.21,.41-.34,.72-.36,.86-.02,.18-.2,.35-.37,.36-.03,0-.22,.02-.82,.36-.05,.03-.11,.04-.17,.04Z"/>
              <path class="cls-3" d="M116.73,125.49h-2.11v.71c.23,.24,.47,.47,.7,.71,1.71-.94,.5,.33,1.41-1.42Z"/>
              <path class="cls-3" d="M77.84,143.14c-.07,0-.14-.02-.21-.06-.1-.07-.15-.18-.15-.3v-.71c0-.2,.16-.36,.36-.36h1.41c.15,0,.29,.1,.34,.24,.05,.15,0,.31-.12,.41l-.27,.22c-.23,.19-.27,.21-.54,.3-.13,.04-.33,.11-.69,.25-.04,.02-.08,.02-.13,.02Z"/>
              <path class="cls-3" d="M77.84,142.77c1.21-.46,.69-.14,1.41-.71h-1.41v.71Z"/>
              <path class="cls-3" d="M86.41,123.17c-.13,0-.25-.07-.31-.19-.07-.14-.06-.3,.05-.42l.23-.27c.19-.23,.23-.26,.48-.39,.12-.06,.31-.16,.64-.36,.06-.03,.12-.05,.18-.05,.05,0,.1,.01,.15,.03,.11,.05,.18,.15,.2,.27l.12,.7c.03,.2-.1,.39-.29,.42l-1.39,.24s-.04,0-.06,0Z"/>
              <path class="cls-3" d="M87.68,121.86c-1.12,.66-.66,.26-1.27,.95,.46-.08,.92-.16,1.39-.24-.04-.23-.08-.47-.12-.7Z"/>
              <path class="cls-3" d="M78.66,192.65c-.11,0-.21-.05-.28-.14-.15-.19-.25-.32-.33-.42-.27-.33-.29-.37-.41-.75-.06-.2-.16-.51-.37-1.06-.04-.11-.03-.24,.04-.33,.07-.1,.18-.16,.3-.16h2.11c.15,0,.28,.09,.33,.22s.02,.29-.08,.4l-.95,.96v.92c0,.16-.1,.29-.24,.34-.04,.01-.08,.02-.12,.02Z"/>
              <path class="cls-3" d="M78.66,192.29v-1.07c.35-.36,.7-.71,1.06-1.07h-2.11c.68,1.84,.21,1.05,1.06,2.14Z"/>
              <path class="cls-3" d="M61.09,17.59c-.2,0-.36-.16-.36-.36v-.48l-.08-.17c-.21-.47-.27-.59-.13-.96,.05-.12,.13-.31,.21-.72,.03-.13,.12-.23,.24-.27,.04-.01,.08-.02,.12-.02,.08,0,.17,.03,.23,.09l.29,.25c.62,.52,.66,.6,.82,1.5,.03,.19,.07,.42,.13,.71,.02,.11,0,.22-.08,.3s-.17,.13-.28,.13h-1.12Z"/>
              <path class="cls-3" d="M61.09,14.97c-.26,1.28-.48,.63,0,1.69v.56h1.12c-.34-1.76-.1-1.37-1.12-2.26Z"/>
              <path class="cls-3" d="M22.2,131.43c-.46,0-.64-.33-.82-.65-.17-.31-.41-.73-.99-1.21-.13-.11-.17-.29-.1-.45,.06-.12,.19-.2,.32-.2,.03,0,.06,0,.09,.01,.84,.22,1.29,.24,1.62,.26,.63,.03,.89,.08,1.71,.9,.08,.08,.12,.19,.1,.31s-.08,.21-.18,.27c-1.02,.58-1.43,.76-1.76,.76h0Z"/>
              <path class="cls-3" d="M23.78,130.35c-1.25-1.25-.93-.47-3.17-1.07,1.82,1.48,.57,2.55,3.17,1.07Z"/>
              <path class="cls-3" d="M28,31.41s-.08,0-.12-.02c-.52-.19-.82-.29-1.02-.35-.4-.13-.44-.15-.73-.4-.1-.08-.24-.2-.46-.38-.12-.1-.17-.26-.12-.41s.19-.25,.34-.25h2.11c.2,0,.36,.16,.36,.36v1.07c0,.12-.06,.23-.15,.3-.06,.04-.13,.07-.21,.07Z"/>
              <path class="cls-3" d="M28,31.04v-1.07h-2.11c1.09,.86,.26,.39,2.11,1.07Z"/>
              <path class="cls-3" d="M28.35,176.85c-.09,0-.19-.04-.25-.11l-.86-.88c-.07-.07-.11-.17-.1-.28,0-.1,.06-.2,.14-.26l.34-.28c.27-.23,.31-.25,.63-.35,.15-.05,.39-.13,.81-.28,.44-.33,.83-.5,1.18-.5,.44,0,.77,.29,.81,.73,.07,.82-.82,1.87-2.62,2.2-.02,0-.04,0-.06,0Z"/>
              <path class="cls-3" d="M29.22,174.74c-1.5,.56-.85,.17-1.73,.87,.29,.29,.58,.59,.86,.88,3.07-.56,2.82-3.27,.87-1.75Z"/>
              <path class="cls-3" d="M15.34,21.8c-.2,0-.36-.16-.36-.36v-2.14c0-.16,.1-.29,.24-.34,.04-.01,.08-.02,.12-.02,.11,0,.21,.05,.28,.14,.15,.19,.25,.32,.33,.42,.27,.33,.29,.37,.41,.75,.06,.2,.16,.51,.37,1.06,.04,.11,.03,.24-.04,.33-.07,.1-.18,.16-.3,.16h-1.06Z"/>
              <path class="cls-3" d="M15.34,19.3v2.14h1.06c-.68-1.84-.21-1.05-1.06-2.14Z"/>
            </g>
          </g>
          <path class="cls-3" d="M19.82,162.58c-.57,0-.98-.22-1.16-.62-.35-.79,.37-1.57,.84-1.9,.16-.17,.46-.29,.81-.29,.32,0,.84,.11,.99,.42,.13,.27,.21,1.36,0,1.78-.21,.42-1.01,.61-1.49,.61Z"/>
          <path class="cls-3" d="M19.71,160.36c.4-.4,1.2-.16,1.28,0s.16,1.13,0,1.46-1.68,.73-2,0,.72-1.46,.72-1.46Z"/>
        </g>
        <path class="cls-3" d="M154.61,175.98c-.11,0-.22-.05-.31-.13l-.54-.55c-.1-.11-.15-.26-.12-.41s.14-.27,.28-.32l1.08-.38s.09-.02,.14-.02c.13,0,.25,.06,.33,.16,.11,.14,.13,.34,.04,.5l-.54,.93c-.07,.12-.19,.19-.32,.21-.02,0-.04,0-.05,0Z"/>
        <polygon class="cls-3" points="154.06 174.99 155.15 174.61 154.61 175.54 154.06 174.99"/>
        <path class="cls-3" d="M140.52,154.84s-.1,0-.14-.02l-.14-.03c-.42-.08-1.05-.2-1.07-.74-.01-.32,.33-1.34,.66-1.68,.16-.16,.31-.2,.42-.2,.11,0,.28,.07,.36,.15,.22,.22,.89,.92,.89,.92,.03,.03,.05,.06,.07,.1,.13,.24,.1,.54-.07,.82-.19,.32-.6,.67-.98,.67Z"/>
        <path class="cls-3" d="M141.18,153.55c.18,.34-.45,.9-.7,.85s-.87-.12-.88-.37,.48-1.61,.7-1.4,.88,.92,.88,.92Z"/>
        <path class="cls-3" d="M149.81,185.03c-.14,0-.27-.07-.35-.19-.08-.12-.1-.27-.05-.4,.12-.35,.19-.55,.23-.68,.09-.28,.11-.34,.3-.56,.05-.07,.13-.16,.24-.3,.08-.11,.21-.17,.34-.17,.05,0,.09,0,.14,.02,.17,.06,.29,.23,.29,.41v1.42c0,.24-.19,.44-.43,.44h-.7Z"/>
        <path class="cls-3" d="M150.51,183.17c-.57,.73-.26,.17-.7,1.42h.7v-1.42Z"/>
        <path class="cls-3" d="M160.36,141.59c-.09,0-.17-.03-.25-.08-.12-.08-.19-.22-.19-.36v-.71c0-.24,.19-.44,.43-.44h1.41c.18,0,.35,.12,.41,.29,.06,.18,0,.37-.14,.49l-.27,.22c-.24,.2-.28,.22-.56,.31-.13,.04-.33,.11-.69,.24-.05,.02-.1,.03-.15,.03Z"/>
        <path class="cls-3" d="M160.36,140.45v.71c1.22-.46,.69-.14,1.41-.71h-1.41Z"/>
        <path class="cls-3" d="M105.47,180.04c-.14,0-.27-.07-.35-.19-.08-.12-.1-.27-.05-.4,.12-.34,.19-.55,.23-.68,.09-.29,.11-.34,.3-.56,.06-.07,.13-.16,.25-.3,.08-.11,.21-.17,.34-.17,.05,0,.09,0,.14,.02,.17,.06,.29,.23,.29,.41v1.42c0,.24-.19,.44-.43,.44h-.7Z"/>
        <path class="cls-3" d="M106.18,179.61v-1.42c-.57,.73-.26,.17-.7,1.42h.7Z"/>
        <path class="cls-3" d="M103.48,171.52c-.07,0-.15,0-.23-.03-.19-.05-.32-.21-.33-.41,0,0,0,.01-.01,.01-.02,0-.05-.03-.07-.04-.15-.12-.4-.33-.4-.69,0-.25,.17-.45,.35-.65,.04-.05,.11-.13,.15-.17,.05-.19,.22-.33,.42-.33h.7c.15,0,.35,.12,.43,.26,.2,.35,.08,1.08-.16,1.51-.2,.35-.5,.55-.85,.55h0Z"/>
        <path class="cls-3" d="M103.36,171.06c.77,.19,.94-1.42,.7-1.42h-.7c0,.17-.49,.55-.49,.72,0,.31,.49,.4,.49,.7Z"/>
        <path class="cls-3" d="M158.25,178.62c-.14,0-.27-.07-.35-.19-.08-.12-.1-.27-.05-.4,.12-.34,.19-.55,.23-.68,.09-.28,.11-.34,.3-.56,.05-.07,.13-.16,.25-.31,.08-.11,.21-.17,.34-.17,.05,0,.09,0,.14,.02,.17,.06,.29,.23,.29,.41v1.42c0,.24-.19,.44-.43,.44h-.7Z"/>
        <path class="cls-3" d="M158.96,176.76c-.57,.73-.26,.18-.7,1.42h.7v-1.42Z"/>
        <path class="cls-3" d="M167.4,168.65c-.14,0-.27-.07-.35-.19-.08-.12-.1-.27-.05-.4,.12-.35,.19-.55,.23-.68,.09-.28,.11-.34,.3-.56,.05-.07,.13-.16,.25-.3,.08-.11,.21-.17,.34-.17,.05,0,.09,0,.14,.02,.17,.06,.29,.23,.29,.41v1.42c0,.24-.19,.44-.43,.44h-.7Z"/>
        <path class="cls-3" d="M168.1,166.79c-.57,.73-.26,.18-.7,1.42h.7v-1.42Z"/>
        <path class="cls-3" d="M159.66,169.36c-.09,0-.18-.03-.26-.09-.19-.14-.34-.25-.46-.32-.26-.18-.45-.31-.47-.58-.02-.26,.15-.42,.3-.56,.12-.11,.31-.28,.54-.58,.08-.11,.21-.17,.34-.17,.05,0,.09,0,.14,.02,.17,.06,.29,.23,.29,.41v1.42c0,.17-.09,.32-.24,.39-.06,.03-.13,.05-.19,.05Z"/>
        <path class="cls-3" d="M159.66,168.93v-1.42c-.86,1.13-1.13,.58,0,1.42Z"/>
        <path class="cls-3" d="M126.16,174.57s-.1,0-.15-.03c-.52-.19-.82-.29-1.02-.35-.41-.13-.46-.16-.76-.41-.1-.08-.24-.2-.46-.38-.15-.12-.2-.31-.14-.49,.06-.18,.22-.29,.41-.29h2.11c.24,0,.43,.2,.43,.44v1.07c0,.14-.07,.28-.18,.36-.07,.05-.16,.08-.25,.08Z"/>
        <path class="cls-3" d="M126.16,173.07h-2.11c1.09,.86,.26,.39,2.11,1.07v-1.07Z"/>
        <path class="cls-3" d="M113.49,187.39s-.1,0-.15-.03c-.52-.19-.82-.29-1.02-.35-.41-.13-.46-.16-.76-.41-.1-.08-.24-.2-.46-.38-.15-.12-.2-.31-.14-.49s.22-.29,.41-.29h2.11c.24,0,.43,.2,.43,.44v1.07c0,.14-.07,.28-.18,.36-.07,.05-.16,.08-.25,.08Z"/>
        <path class="cls-3" d="M113.49,186.95v-1.07h-2.11c1.09,.86,.26,.39,2.11,1.07Z"/>
        <path class="cls-3" d="M128.27,147.88c-.24,0-.43-.2-.43-.44v-2.14c0-.19,.12-.35,.29-.41,.05-.02,.09-.02,.14-.02,.13,0,.26,.06,.34,.17,.15,.19,.25,.32,.33,.42,.27,.34,.3,.39,.42,.78,.06,.2,.16,.51,.37,1.06,.05,.13,.03,.28-.05,.4-.08,.12-.21,.19-.35,.19h-1.06Z"/>
        <path class="cls-3" d="M128.27,145.3v2.14h1.06c-.68-1.84-.21-1.05-1.06-2.14Z"/>
        <path class="cls-3" d="M110.4,58.29c-.09,0-.17-.03-.25-.08-.12-.08-.19-.22-.19-.36v-.71c0-.24,.19-.44,.43-.44h1.41c.18,0,.35,.12,.41,.29,.06,.18,0,.37-.14,.49l-.27,.22c-.24,.2-.28,.22-.56,.31-.13,.04-.33,.11-.69,.24-.05,.02-.1,.03-.15,.03Z"/>
        <path class="cls-3" d="M110.4,57.14v.71c1.21-.46,.69-.14,1.41-.71h-1.41Z"/>
        <path class="cls-3" d="M107.58,52.59c-.09,0-.17-.03-.25-.08-.12-.08-.19-.22-.19-.36v-.71c0-.24,.19-.44,.43-.44h1.41c.18,0,.35,.12,.41,.29,.06,.18,0,.37-.14,.49l-.27,.22c-.24,.2-.28,.22-.56,.31-.13,.04-.33,.11-.69,.24-.05,.02-.1,.03-.15,.03Z"/>
        <path class="cls-3" d="M107.58,51.44v.71c1.21-.46,.69-.14,1.41-.71h-1.41Z"/>
        <path class="cls-3" d="M78.73,54.01c-.14,0-.27-.07-.35-.19-.08-.12-.1-.27-.05-.4,.12-.35,.19-.55,.23-.68,.09-.28,.11-.34,.3-.56,.06-.07,.13-.16,.25-.3,.08-.11,.21-.17,.34-.17,.05,0,.09,0,.14,.02,.17,.06,.29,.23,.29,.41v1.42c0,.24-.19,.44-.43,.44h-.7Z"/>
        <path class="cls-3" d="M79.43,52.15c-.57,.73-.26,.18-.7,1.42h.7v-1.42Z"/>
        <path class="cls-3" d="M139.95,75.38c-.1,0-.2-.04-.28-.11-.13-.12-.18-.3-.13-.47l.7-2.14c.06-.18,.23-.3,.41-.3,.04,0,.09,0,.14,.02l2.11,.71c.17,.06,.28,.21,.29,.38,.01,.18-.08,.34-.24,.42l-2.81,1.42c-.06,.03-.13,.05-.19,.05Z"/>
        <path class="cls-3" d="M139.95,74.94l2.82-1.42c-.7-.24-1.41-.47-2.11-.71-.23,.71-.47,1.42-.7,2.14Z"/>
        <path class="cls-3" d="M30.88,76.8c-.14,0-.27-.07-.35-.19-.08-.12-.1-.27-.05-.4,.12-.35,.19-.55,.23-.68,.09-.28,.11-.34,.3-.56,.05-.07,.13-.16,.25-.3,.08-.11,.21-.17,.34-.17,.05,0,.09,0,.14,.02,.17,.06,.29,.23,.29,.41v1.42c0,.24-.19,.44-.43,.44h-.7Z"/>
        <path class="cls-3" d="M31.58,74.94c-.57,.73-.26,.17-.7,1.42h.7v-1.42Z"/>
        <path class="cls-3" d="M18.21,48.32c-.09,0-.17-.03-.25-.08-.12-.08-.19-.22-.19-.36v-.71c0-.24,.19-.44,.43-.44h1.41c.18,0,.35,.12,.41,.29,.06,.18,0,.37-.14,.49l-.27,.22c-.24,.2-.28,.22-.56,.31-.13,.04-.33,.11-.69,.24-.05,.02-.1,.03-.15,.03Z"/>
        <path class="cls-3" d="M18.21,47.17v.71c1.21-.46,.69-.14,1.41-.71h-1.41Z"/>
        <path class="cls-3" d="M83.66,44.05c-.14,0-.27-.07-.35-.19-.08-.12-.1-.27-.05-.4,.12-.35,.19-.55,.23-.68,.09-.28,.11-.34,.3-.56,.05-.07,.13-.16,.24-.3,.08-.11,.21-.17,.34-.17,.05,0,.09,0,.14,.02,.17,.06,.29,.23,.29,.41v1.42c0,.24-.19,.44-.43,.44h-.7Z"/>
        <path class="cls-3" d="M84.36,43.61v-1.42c-.57,.73-.26,.18-.7,1.42h.7Z"/>
        <path class="cls-3" d="M68.17,39.06c-.14,0-.27-.07-.35-.19-.08-.12-.1-.27-.05-.4,.12-.34,.19-.55,.23-.68,.09-.28,.11-.34,.3-.56,.06-.07,.13-.16,.25-.31,.08-.11,.21-.17,.34-.17,.05,0,.09,0,.14,.02,.17,.06,.29,.23,.29,.41v1.42c0,.24-.19,.44-.43,.44h-.7Z"/>
        <path class="cls-3" d="M68.88,37.2c-.57,.73-.26,.17-.7,1.42h.7v-1.42Z"/>
        <path class="cls-3" d="M141.99,48.57s-.07,0-.11-.02c-.6-.16-1.11-.24-1.55-.24,0,0-.27,0-.28,0-.09,0-.31,0-.47-.18-.17-.18-.15-.4-.14-.67,.02-.26,.05-.7,0-1.44-.01-.18,.09-.35,.25-.43,.06-.03,.12-.04,.18-.04,.11,0,.22,.04,.31,.13l2.11,2.13c.14,.14,.17,.36,.07,.53-.08,.14-.22,.22-.37,.22Z"/>
        <path class="cls-3" d="M141.99,48.13l-2.11-2.14c.19,2.91-.77,1.35,2.11,2.14Z"/>
        <path class="cls-3" d="M102.94,66.72s-.1,0-.15-.03c-.52-.19-.82-.29-1.02-.35-.41-.13-.46-.16-.76-.41-.1-.08-.24-.2-.46-.38-.15-.12-.2-.31-.14-.49s.22-.29,.41-.29h2.11c.24,0,.43,.2,.43,.44v1.07c0,.14-.07,.28-.18,.36-.07,.05-.16,.08-.25,.08Z"/>
        <path class="cls-3" d="M102.94,65.22h-2.11c1.09,.86,.26,.39,2.11,1.07v-1.07Z"/>
        <path class="cls-3" d="M88.24,59.79c-.58,0-1.33-.22-1.54-.84-.04-.13-.02-.28,.06-.39s.21-.18,.35-.18c.16,0,.35-.11,.55-.23,.28-.16,.59-.34,.97-.34,.3,0,.48,.24,.64,.46,.03,.04,.08,.1,.11,.14,.16,.06,.27,.22,.27,.41,0,.34-.2,.63-.54,.8-.24,.12-.54,.18-.87,.18h0Z"/>
        <path class="cls-3" d="M88.63,58.24c-.54,0-.99,.56-1.52,.56,.25,.74,2.11,.71,2.11,0-.17,0-.42-.56-.59-.56Z"/>
        <path class="cls-3" d="M44.69,54.38c-.06,0-.11-.01-.17-.03-.16-.07-.27-.23-.27-.4v-.61c0-1.08,.87-1.96,1.94-1.96h.6c.17,0,.33,.11,.4,.27,.07,.16,.03,.35-.09,.48l-2.11,2.14c-.08,.08-.19,.13-.31,.13Z"/>
        <path class="cls-3" d="M46.19,51.8c-.83,0-1.51,.68-1.51,1.52v.61l2.11-2.14h-.6Z"/>
        <path class="cls-3" d="M12.17,80.6c-.24,0-.43-.2-.43-.44v-2.14c0-.19,.12-.35,.29-.41,.05-.02,.09-.02,.14-.02,.13,0,.26,.06,.34,.17,.15,.19,.25,.32,.33,.42,.27,.34,.3,.39,.42,.78,.06,.2,.16,.51,.36,1.06,.05,.13,.03,.28-.05,.4-.08,.12-.21,.19-.35,.19h-1.06Z"/>
        <path class="cls-3" d="M12.17,80.17h1.06c-.68-1.84-.21-1.05-1.06-2.14v2.14Z"/>
        <path class="cls-3" d="M75.18,78.97c-.35,0-.71-.19-1.11-.58l-1.25-1.22c-.09-.09-.14-.21-.13-.33,0-.12,.06-.24,.16-.32,.53-.44,1.23-.72,1.81-.72,.66,0,1.15,.33,1.36,.9,.2,.54,.24,1.36-.11,1.87-.18,.26-.44,.4-.73,.4Z"/>
        <path class="cls-3" d="M73.13,76.85c.82-.68,2.15-.95,2.49,0s0,2.45-1.25,1.22l-1.25-1.22Z"/>
      </g>
      <path class="cls-3" d="M151.36,108.59l1.26-.44c.72-.25,1.35,.54,.97,1.2l-.63,1.08c-.27,.46-.9,.54-1.28,.16l-.63-.64c-.42-.43-.26-1.16,.31-1.36Z"/>
    </g>
  </g>
</svg>